<svg width="23" height="23" viewBox="0 0 23 23" fill="none" xmlns="http://www.w3.org/2000/svg">
<g opacity="0.8">
<path d="M11.5 1V4ZM11.5 19.0834V22ZM3.91667 11.5H1ZM6 6L3.91667 3.91667ZM17 6L19.0833 3.91667ZM6 17L3.91667 19.0834ZM17 17L19.0833 19.0834ZM22 11.5H19.0833ZM16.1667 11.5C16.1667 14.0773 14.0773 16.1667 11.5 16.1667C8.92267 16.1667 6.83333 14.0773 6.83333 11.5C6.83333 8.92267 8.92267 6.83333 11.5 6.83333C14.0773 6.83333 16.1667 8.92267 16.1667 11.5Z" fill="#D9D9D9"/>
<path d="M11.5 1V4ZM11.5 19.0834V22ZM3.91667 11.5H1ZM6 6L3.91667 3.91667ZM17 6L19.0833 3.91667ZM6 17L3.91667 19.0834ZM17 17L19.0833 19.0834ZM22 11.5H19.0833ZM16.1667 11.5C16.1667 14.0773 14.0773 16.1667 11.5 16.1667C8.92267 16.1667 6.83333 14.0773 6.83333 11.5C6.83333 8.92267 8.92267 6.83333 11.5 6.83333C14.0773 6.83333 16.1667 8.92267 16.1667 11.5Z" fill="black"/>
<path d="M11.5 1V4M11.5 19.0834V22M3.91667 11.5H1M6 6L3.91667 3.91667M17 6L19.0833 3.91667M6 17L3.91667 19.0834M17 17L19.0833 19.0834M22 11.5H19.0833M16.1667 11.5C16.1667 14.0773 14.0773 16.1667 11.5 16.1667C8.92267 16.1667 6.83333 14.0773 6.83333 11.5C6.83333 8.92267 8.92267 6.83333 11.5 6.83333C14.0773 6.83333 16.1667 8.92267 16.1667 11.5Z" stroke="black" stroke-width="2" stroke-linecap="round" stroke-linejoin="round"/>
</g>
</svg>
