<svg width="230" height="108" viewBox="0 0 230 108" fill="none" xmlns="http://www.w3.org/2000/svg">
<path opacity="0.6" d="M59.632 15C59.5253 15 59.4347 14.9627 59.36 14.888C59.2853 14.8133 59.248 14.7227 59.248 14.616V4.2C59.248 4.08267 59.2853 3.98667 59.36 3.912C59.4347 3.83733 59.5253 3.8 59.632 3.8H64.272C65.136 3.8 65.84 3.93333 66.384 4.2C66.928 4.456 67.328 4.81333 67.584 5.272C67.8507 5.73067 67.984 6.264 67.984 6.872C67.984 7.27733 67.9093 7.63467 67.76 7.944C67.6213 8.24267 67.4453 8.488 67.232 8.68C67.0293 8.872 66.8267 9.02133 66.624 9.128C67.04 9.32 67.408 9.64 67.728 10.088C68.048 10.536 68.208 11.0693 68.208 11.688C68.208 12.328 68.064 12.8987 67.776 13.4C67.488 13.9013 67.0613 14.296 66.496 14.584C65.9307 14.8613 65.232 15 64.4 15H59.632ZM61.472 13.304H64.144C64.72 13.304 65.1573 13.1493 65.456 12.84C65.7547 12.52 65.904 12.136 65.904 11.688C65.904 11.2187 65.7493 10.8293 65.44 10.52C65.1413 10.2107 64.7093 10.056 64.144 10.056H61.472V13.304ZM61.472 8.392H63.984C64.5493 8.392 64.9707 8.25867 65.248 7.992C65.536 7.71467 65.68 7.35733 65.68 6.92C65.68 6.472 65.536 6.12533 65.248 5.88C64.9707 5.624 64.5493 5.496 63.984 5.496H61.472V8.392ZM73.7048 15.16C72.8514 15.16 72.1314 15.0107 71.5448 14.712C70.9688 14.4133 70.5261 13.992 70.2168 13.448C69.9181 12.904 69.7474 12.2693 69.7048 11.544C69.6941 11.352 69.6888 11.1173 69.6888 10.84C69.6888 10.5627 69.6941 10.328 69.7048 10.136C69.7474 9.4 69.9234 8.76533 70.2328 8.232C70.5528 7.688 71.0008 7.26667 71.5768 6.968C72.1634 6.66933 72.8728 6.52 73.7048 6.52C74.5368 6.52 75.2408 6.66933 75.8168 6.968C76.4034 7.26667 76.8514 7.688 77.1608 8.232C77.4808 8.76533 77.6621 9.4 77.7048 10.136C77.7154 10.328 77.7208 10.5627 77.7208 10.84C77.7208 11.1173 77.7154 11.352 77.7048 11.544C77.6621 12.2693 77.4861 12.904 77.1768 13.448C76.8781 13.992 76.4354 14.4133 75.8488 14.712C75.2728 15.0107 74.5581 15.16 73.7048 15.16ZM73.7048 13.576C74.2701 13.576 74.7074 13.4 75.0168 13.048C75.3261 12.6853 75.4968 12.1573 75.5288 11.464C75.5394 11.304 75.5448 11.096 75.5448 10.84C75.5448 10.584 75.5394 10.376 75.5288 10.216C75.4968 9.53333 75.3261 9.01067 75.0168 8.648C74.7074 8.28533 74.2701 8.104 73.7048 8.104C73.1394 8.104 72.7021 8.28533 72.3928 8.648C72.0834 9.01067 71.9128 9.53333 71.8808 10.216C71.8701 10.376 71.8648 10.584 71.8648 10.84C71.8648 11.096 71.8701 11.304 71.8808 11.464C71.9128 12.1573 72.0834 12.6853 72.3928 13.048C72.7021 13.4 73.1394 13.576 73.7048 13.576ZM79.8775 15C79.7708 15 79.6802 14.9627 79.6055 14.888C79.5308 14.8133 79.4935 14.7227 79.4935 14.616V7.08C79.4935 6.96267 79.5308 6.86667 79.6055 6.792C79.6802 6.71733 79.7708 6.68 79.8775 6.68H81.1735C81.2802 6.68 81.3708 6.71733 81.4455 6.792C81.5308 6.86667 81.5735 6.96267 81.5735 7.08V7.736C81.8188 7.39467 82.1335 7.13333 82.5175 6.952C82.9122 6.77067 83.3655 6.68 83.8775 6.68H84.5335C84.6508 6.68 84.7415 6.71733 84.8055 6.792C84.8802 6.86667 84.9175 6.95733 84.9175 7.064V8.216C84.9175 8.32267 84.8802 8.41333 84.8055 8.488C84.7415 8.56267 84.6508 8.6 84.5335 8.6H83.2855C82.7735 8.6 82.3735 8.744 82.0855 9.032C81.8082 9.32 81.6695 9.71467 81.6695 10.216V14.616C81.6695 14.7227 81.6322 14.8133 81.5575 14.888C81.4828 14.9627 81.3868 15 81.2695 15H79.8775ZM86.5494 15C86.4427 15 86.352 14.9627 86.2774 14.888C86.2027 14.8133 86.1654 14.7227 86.1654 14.616V7.064C86.1654 6.95733 86.2027 6.86667 86.2774 6.792C86.352 6.71733 86.4427 6.68 86.5494 6.68H87.8614C87.968 6.68 88.0587 6.71733 88.1334 6.792C88.208 6.86667 88.2454 6.95733 88.2454 7.064V7.72C88.5227 7.37867 88.8747 7.096 89.3014 6.872C89.7387 6.63733 90.2774 6.52 90.9174 6.52C91.568 6.52 92.1334 6.66933 92.6134 6.968C93.0934 7.256 93.4614 7.66667 93.7174 8.2C93.984 8.73333 94.1174 9.37333 94.1174 10.12V14.616C94.1174 14.7227 94.08 14.8133 94.0054 14.888C93.9307 14.9627 93.84 15 93.7334 15H92.3254C92.2187 15 92.128 14.9627 92.0534 14.888C91.9787 14.8133 91.9414 14.7227 91.9414 14.616V10.216C91.9414 9.59733 91.7867 9.112 91.4774 8.76C91.1787 8.408 90.7414 8.232 90.1654 8.232C89.6107 8.232 89.168 8.408 88.8374 8.76C88.5067 9.112 88.3414 9.59733 88.3414 10.216V14.616C88.3414 14.7227 88.304 14.8133 88.2294 14.888C88.1547 14.9627 88.064 15 87.9574 15H86.5494Z" fill="white"/>
<path opacity="0.6" d="M59.632 44C59.5253 44 59.4347 43.9627 59.36 43.888C59.2853 43.8133 59.248 43.7227 59.248 43.616V33.2C59.248 33.0827 59.2853 32.9867 59.36 32.912C59.4347 32.8373 59.5253 32.8 59.632 32.8H66.576C66.6933 32.8 66.7893 32.8373 66.864 32.912C66.9387 32.9867 66.976 33.0827 66.976 33.2V34.32C66.976 34.4373 66.9387 34.5333 66.864 34.608C66.7893 34.672 66.6933 34.704 66.576 34.704H61.44V37.744H66.256C66.3733 37.744 66.4693 37.7813 66.544 37.856C66.6187 37.9307 66.656 38.0267 66.656 38.144V39.264C66.656 39.3707 66.6187 39.4613 66.544 39.536C66.4693 39.6107 66.3733 39.648 66.256 39.648H61.44V43.616C61.44 43.7227 61.4027 43.8133 61.328 43.888C61.2533 43.9627 61.1573 44 61.04 44H59.632ZM69.19 44C69.0833 44 68.9927 43.9627 68.918 43.888C68.8433 43.8133 68.806 43.7227 68.806 43.616V36.064C68.806 35.9573 68.8433 35.8667 68.918 35.792C68.9927 35.7173 69.0833 35.68 69.19 35.68H70.518C70.6353 35.68 70.726 35.7173 70.79 35.792C70.8647 35.8667 70.902 35.9573 70.902 36.064V43.616C70.902 43.7227 70.8647 43.8133 70.79 43.888C70.726 43.9627 70.6353 44 70.518 44H69.19ZM69.126 34.304C69.0087 34.304 68.9127 34.272 68.838 34.208C68.774 34.1333 68.742 34.0373 68.742 33.92V32.768C68.742 32.6613 68.774 32.5707 68.838 32.496C68.9127 32.4213 69.0087 32.384 69.126 32.384H70.582C70.6993 32.384 70.7953 32.4213 70.87 32.496C70.9447 32.5707 70.982 32.6613 70.982 32.768V33.92C70.982 34.0373 70.9447 34.1333 70.87 34.208C70.7953 34.272 70.6993 34.304 70.582 34.304H69.126ZM73.7369 44C73.6302 44 73.5395 43.9627 73.4649 43.888C73.3902 43.8133 73.3529 43.7227 73.3529 43.616V36.064C73.3529 35.9573 73.3902 35.8667 73.4649 35.792C73.5395 35.7173 73.6302 35.68 73.7369 35.68H75.0489C75.1555 35.68 75.2462 35.7173 75.3209 35.792C75.3955 35.8667 75.4329 35.9573 75.4329 36.064V36.72C75.7102 36.3787 76.0622 36.096 76.4889 35.872C76.9262 35.6373 77.4649 35.52 78.1049 35.52C78.7555 35.52 79.3209 35.6693 79.8009 35.968C80.2809 36.256 80.6489 36.6667 80.9049 37.2C81.1715 37.7333 81.3049 38.3733 81.3049 39.12V43.616C81.3049 43.7227 81.2675 43.8133 81.1929 43.888C81.1182 43.9627 81.0275 44 80.9209 44H79.5129C79.4062 44 79.3155 43.9627 79.2409 43.888C79.1662 43.8133 79.1289 43.7227 79.1289 43.616V39.216C79.1289 38.5973 78.9742 38.112 78.6649 37.76C78.3662 37.408 77.9289 37.232 77.3529 37.232C76.7982 37.232 76.3555 37.408 76.0249 37.76C75.6942 38.112 75.5289 38.5973 75.5289 39.216V43.616C75.5289 43.7227 75.4915 43.8133 75.4169 43.888C75.3422 43.9627 75.2515 44 75.1449 44H73.7369ZM83.7213 44C83.6146 44 83.5239 43.9627 83.4493 43.888C83.3746 43.8133 83.3372 43.7227 83.3372 43.616V36.064C83.3372 35.9573 83.3746 35.8667 83.4493 35.792C83.5239 35.7173 83.6146 35.68 83.7213 35.68H85.0493C85.1666 35.68 85.2573 35.7173 85.3213 35.792C85.3959 35.8667 85.4333 35.9573 85.4333 36.064V43.616C85.4333 43.7227 85.3959 43.8133 85.3213 43.888C85.2573 43.9627 85.1666 44 85.0493 44H83.7213ZM83.6573 34.304C83.5399 34.304 83.4439 34.272 83.3693 34.208C83.3053 34.1333 83.2733 34.0373 83.2733 33.92V32.768C83.2733 32.6613 83.3053 32.5707 83.3693 32.496C83.4439 32.4213 83.5399 32.384 83.6573 32.384H85.1133C85.2306 32.384 85.3266 32.4213 85.4013 32.496C85.4759 32.5707 85.5133 32.6613 85.5133 32.768V33.92C85.5133 34.0373 85.4759 34.1333 85.4013 34.208C85.3266 34.272 85.2306 34.304 85.1133 34.304H83.6573ZM90.8955 44.16C90.2555 44.16 89.7062 44.0853 89.2475 43.936C88.7995 43.7867 88.4315 43.6 88.1435 43.376C87.8555 43.152 87.6422 42.928 87.5035 42.704C87.3648 42.48 87.2902 42.2933 87.2795 42.144C87.2688 42.0267 87.3008 41.936 87.3755 41.872C87.4608 41.7973 87.5515 41.76 87.6475 41.76H88.9115C88.9542 41.76 88.9915 41.7653 89.0235 41.776C89.0555 41.7867 89.0982 41.8187 89.1515 41.872C89.2902 41.9893 89.4342 42.112 89.5835 42.24C89.7435 42.368 89.9302 42.48 90.1435 42.576C90.3568 42.6613 90.6235 42.704 90.9435 42.704C91.3595 42.704 91.7062 42.624 91.9835 42.464C92.2715 42.2933 92.4155 42.0533 92.4155 41.744C92.4155 41.52 92.3515 41.3387 92.2235 41.2C92.1062 41.0613 91.8822 40.9387 91.5515 40.832C91.2208 40.7147 90.7515 40.592 90.1435 40.464C89.5462 40.3253 89.0502 40.1493 88.6555 39.936C88.2608 39.7227 87.9675 39.456 87.7755 39.136C87.5835 38.816 87.4875 38.4427 87.4875 38.016C87.4875 37.6 87.6102 37.2053 87.8555 36.832C88.1115 36.448 88.4848 36.1333 88.9755 35.888C89.4768 35.6427 90.0955 35.52 90.8315 35.52C91.4075 35.52 91.9088 35.5947 92.3355 35.744C92.7622 35.8827 93.1142 36.0587 93.3915 36.272C93.6795 36.4853 93.8982 36.704 94.0475 36.928C94.1968 37.1413 94.2768 37.328 94.2875 37.488C94.2982 37.6053 94.2662 37.7013 94.1915 37.776C94.1168 37.84 94.0315 37.872 93.9355 37.872H92.7515C92.6982 37.872 92.6502 37.8613 92.6075 37.84C92.5648 37.8187 92.5222 37.792 92.4795 37.76C92.3622 37.6533 92.2342 37.5413 92.0955 37.424C91.9568 37.3067 91.7862 37.2053 91.5835 37.12C91.3915 37.024 91.1355 36.976 90.8155 36.976C90.4102 36.976 90.1008 37.0667 89.8875 37.248C89.6742 37.4187 89.5675 37.6373 89.5675 37.904C89.5675 38.0853 89.6155 38.2453 89.7115 38.384C89.8182 38.512 90.0262 38.6347 90.3355 38.752C90.6448 38.8693 91.1142 38.992 91.7435 39.12C92.4582 39.248 93.0235 39.44 93.4395 39.696C93.8662 39.9413 94.1648 40.2293 94.3355 40.56C94.5168 40.88 94.6075 41.2373 94.6075 41.632C94.6075 42.112 94.4635 42.544 94.1755 42.928C93.8982 43.312 93.4822 43.616 92.9275 43.84C92.3835 44.0533 91.7062 44.16 90.8955 44.16ZM96.6591 44C96.5525 44 96.4618 43.9627 96.3871 43.888C96.3125 43.8133 96.2751 43.7227 96.2751 43.616V33.024C96.2751 32.9173 96.3125 32.8267 96.3871 32.752C96.4618 32.6773 96.5525 32.64 96.6591 32.64H98.0831C98.2005 32.64 98.2911 32.6773 98.3551 32.752C98.4298 32.8267 98.4671 32.9173 98.4671 33.024V36.672C98.7551 36.3307 99.1071 36.0533 99.5231 35.84C99.9391 35.6267 100.451 35.52 101.059 35.52C101.71 35.52 102.275 35.6693 102.755 35.968C103.246 36.256 103.624 36.6667 103.891 37.2C104.158 37.7333 104.291 38.3733 104.291 39.12V43.616C104.291 43.7227 104.254 43.8133 104.179 43.888C104.104 43.9627 104.014 44 103.907 44H102.467C102.36 44 102.27 43.9627 102.195 43.888C102.12 43.8133 102.083 43.7227 102.083 43.616V39.216C102.083 38.5973 101.928 38.112 101.619 37.76C101.32 37.408 100.883 37.232 100.307 37.232C99.7525 37.232 99.3045 37.408 98.9631 37.76C98.6325 38.112 98.4671 38.5973 98.4671 39.216V43.616C98.4671 43.7227 98.4298 43.8133 98.3551 43.888C98.2911 43.9627 98.2005 44 98.0831 44H96.6591ZM109.906 44.16C108.722 44.16 107.783 43.8187 107.09 43.136C106.396 42.4533 106.023 41.4827 105.97 40.224C105.959 40.1173 105.954 39.984 105.954 39.824C105.954 39.6533 105.959 39.52 105.97 39.424C106.012 38.624 106.194 37.9307 106.514 37.344C106.844 36.7573 107.298 36.3093 107.874 36C108.45 35.68 109.127 35.52 109.906 35.52C110.77 35.52 111.495 35.7013 112.082 36.064C112.668 36.416 113.111 36.912 113.41 37.552C113.708 38.1813 113.858 38.912 113.858 39.744V40.08C113.858 40.1867 113.82 40.2773 113.746 40.352C113.671 40.4267 113.575 40.464 113.458 40.464H108.146C108.146 40.464 108.146 40.48 108.146 40.512C108.146 40.544 108.146 40.5707 108.146 40.592C108.156 40.9653 108.226 41.312 108.354 41.632C108.492 41.9413 108.69 42.192 108.946 42.384C109.212 42.576 109.527 42.672 109.89 42.672C110.188 42.672 110.439 42.6293 110.642 42.544C110.844 42.448 111.01 42.3413 111.138 42.224C111.266 42.1067 111.356 42.0107 111.41 41.936C111.506 41.808 111.58 41.7333 111.634 41.712C111.698 41.68 111.788 41.664 111.906 41.664H113.282C113.388 41.664 113.474 41.696 113.538 41.76C113.612 41.824 113.644 41.904 113.634 42C113.623 42.1707 113.532 42.3787 113.362 42.624C113.202 42.8693 112.967 43.1093 112.658 43.344C112.348 43.5787 111.959 43.776 111.49 43.936C111.031 44.0853 110.503 44.16 109.906 44.16ZM108.146 39.12H111.682V39.072C111.682 38.656 111.612 38.2933 111.474 37.984C111.335 37.6747 111.132 37.4293 110.866 37.248C110.599 37.0667 110.279 36.976 109.906 36.976C109.532 36.976 109.212 37.0667 108.946 37.248C108.679 37.4293 108.476 37.6747 108.338 37.984C108.21 38.2933 108.146 38.656 108.146 39.072V39.12ZM118.644 44.16C118.089 44.16 117.599 44.0693 117.172 43.888C116.756 43.696 116.409 43.4293 116.132 43.088C115.855 42.7467 115.641 42.3467 115.492 41.888C115.343 41.4187 115.257 40.9067 115.236 40.352C115.225 40.16 115.22 39.9893 115.22 39.84C115.22 39.68 115.225 39.504 115.236 39.312C115.257 38.7787 115.337 38.2827 115.476 37.824C115.625 37.3653 115.839 36.9653 116.116 36.624C116.404 36.272 116.756 36 117.172 35.808C117.599 35.616 118.089 35.52 118.644 35.52C119.22 35.52 119.705 35.6213 120.1 35.824C120.505 36.016 120.841 36.2667 121.108 36.576V33.024C121.108 32.9173 121.14 32.8267 121.204 32.752C121.279 32.6773 121.375 32.64 121.492 32.64H122.852C122.959 32.64 123.049 32.6773 123.124 32.752C123.199 32.8267 123.236 32.9173 123.236 33.024V43.616C123.236 43.7227 123.199 43.8133 123.124 43.888C123.049 43.9627 122.959 44 122.852 44H121.588C121.471 44 121.375 43.9627 121.3 43.888C121.236 43.8133 121.204 43.7227 121.204 43.616V43.024C120.937 43.3547 120.596 43.6267 120.18 43.84C119.775 44.0533 119.263 44.16 118.644 44.16ZM119.236 42.448C119.684 42.448 120.041 42.3467 120.308 42.144C120.575 41.9413 120.772 41.6853 120.9 41.376C121.028 41.056 121.097 40.7307 121.108 40.4C121.119 40.208 121.124 40.0053 121.124 39.792C121.124 39.568 121.119 39.36 121.108 39.168C121.097 38.848 121.023 38.544 120.884 38.256C120.745 37.9573 120.543 37.712 120.276 37.52C120.009 37.328 119.663 37.232 119.236 37.232C118.788 37.232 118.431 37.3333 118.164 37.536C117.908 37.728 117.721 37.984 117.604 38.304C117.487 38.624 117.417 38.976 117.396 39.36C117.385 39.68 117.385 40 117.396 40.32C117.417 40.704 117.487 41.056 117.604 41.376C117.721 41.696 117.908 41.9573 118.164 42.16C118.431 42.352 118.788 42.448 119.236 42.448ZM129.601 44C129.494 44 129.403 43.9627 129.329 43.888C129.254 43.8133 129.217 43.7227 129.217 43.616V33.2C129.217 33.0827 129.254 32.9867 129.329 32.912C129.403 32.8373 129.494 32.8 129.601 32.8H131.009C131.126 32.8 131.222 32.8373 131.297 32.912C131.371 32.9867 131.409 33.0827 131.409 33.2V36.944L135.025 33.088C135.067 33.0347 135.137 32.976 135.233 32.912C135.339 32.8373 135.478 32.8 135.649 32.8H137.233C137.318 32.8 137.393 32.832 137.457 32.896C137.531 32.96 137.569 33.04 137.569 33.136C137.569 33.2107 137.547 33.2747 137.505 33.328L133.105 38.16L137.809 43.456C137.862 43.52 137.889 43.5893 137.889 43.664C137.889 43.76 137.851 43.84 137.777 43.904C137.713 43.968 137.638 44 137.553 44H135.905C135.723 44 135.579 43.9627 135.473 43.888C135.377 43.8027 135.313 43.744 135.281 43.712L131.409 39.472V43.616C131.409 43.7227 131.371 43.8133 131.297 43.888C131.222 43.9627 131.126 44 131.009 44H129.601ZM139.518 44C139.411 44 139.321 43.9627 139.246 43.888C139.171 43.8133 139.134 43.7227 139.134 43.616V36.064C139.134 35.9573 139.171 35.8667 139.246 35.792C139.321 35.7173 139.411 35.68 139.518 35.68H140.846C140.963 35.68 141.054 35.7173 141.118 35.792C141.193 35.8667 141.23 35.9573 141.23 36.064V43.616C141.23 43.7227 141.193 43.8133 141.118 43.888C141.054 43.9627 140.963 44 140.846 44H139.518ZM139.454 34.304C139.337 34.304 139.241 34.272 139.166 34.208C139.102 34.1333 139.07 34.0373 139.07 33.92V32.768C139.07 32.6613 139.102 32.5707 139.166 32.496C139.241 32.4213 139.337 32.384 139.454 32.384H140.91C141.027 32.384 141.123 32.4213 141.198 32.496C141.273 32.5707 141.31 32.6613 141.31 32.768V33.92C141.31 34.0373 141.273 34.1333 141.198 34.208C141.123 34.272 141.027 34.304 140.91 34.304H139.454ZM144.065 44C143.958 44 143.868 43.9627 143.793 43.888C143.718 43.8133 143.681 43.7227 143.681 43.616V36.064C143.681 35.9573 143.718 35.8667 143.793 35.792C143.868 35.7173 143.958 35.68 144.065 35.68H145.377C145.484 35.68 145.574 35.7173 145.649 35.792C145.724 35.8667 145.761 35.9573 145.761 36.064V36.72C146.038 36.3787 146.39 36.096 146.817 35.872C147.254 35.6373 147.793 35.52 148.433 35.52C149.084 35.52 149.649 35.6693 150.129 35.968C150.609 36.256 150.977 36.6667 151.233 37.2C151.5 37.7333 151.633 38.3733 151.633 39.12V43.616C151.633 43.7227 151.596 43.8133 151.521 43.888C151.446 43.9627 151.356 44 151.249 44H149.841C149.734 44 149.644 43.9627 149.569 43.888C149.494 43.8133 149.457 43.7227 149.457 43.616V39.216C149.457 38.5973 149.302 38.112 148.993 37.76C148.694 37.408 148.257 37.232 147.681 37.232C147.126 37.232 146.684 37.408 146.353 37.76C146.022 38.112 145.857 38.5973 145.857 39.216V43.616C145.857 43.7227 145.82 43.8133 145.745 43.888C145.67 43.9627 145.58 44 145.473 44H144.065ZM156.753 44.16C156.199 44.16 155.708 44.0693 155.281 43.888C154.865 43.696 154.519 43.4293 154.241 43.088C153.964 42.7467 153.751 42.3467 153.601 41.888C153.452 41.4187 153.367 40.9067 153.345 40.352C153.335 40.16 153.329 39.9893 153.329 39.84C153.329 39.68 153.335 39.504 153.345 39.312C153.367 38.7787 153.447 38.2827 153.585 37.824C153.735 37.3653 153.948 36.9653 154.225 36.624C154.513 36.272 154.865 36 155.281 35.808C155.708 35.616 156.199 35.52 156.753 35.52C157.329 35.52 157.815 35.6213 158.209 35.824C158.615 36.016 158.951 36.2667 159.217 36.576V33.024C159.217 32.9173 159.249 32.8267 159.313 32.752C159.388 32.6773 159.484 32.64 159.601 32.64H160.961C161.068 32.64 161.159 32.6773 161.233 32.752C161.308 32.8267 161.345 32.9173 161.345 33.024V43.616C161.345 43.7227 161.308 43.8133 161.233 43.888C161.159 43.9627 161.068 44 160.961 44H159.697C159.58 44 159.484 43.9627 159.409 43.888C159.345 43.8133 159.313 43.7227 159.313 43.616V43.024C159.047 43.3547 158.705 43.6267 158.289 43.84C157.884 44.0533 157.372 44.16 156.753 44.16ZM157.345 42.448C157.793 42.448 158.151 42.3467 158.417 42.144C158.684 41.9413 158.881 41.6853 159.009 41.376C159.137 41.056 159.207 40.7307 159.217 40.4C159.228 40.208 159.233 40.0053 159.233 39.792C159.233 39.568 159.228 39.36 159.217 39.168C159.207 38.848 159.132 38.544 158.993 38.256C158.855 37.9573 158.652 37.712 158.385 37.52C158.119 37.328 157.772 37.232 157.345 37.232C156.897 37.232 156.54 37.3333 156.273 37.536C156.017 37.728 155.831 37.984 155.713 38.304C155.596 38.624 155.527 38.976 155.505 39.36C155.495 39.68 155.495 40 155.505 40.32C155.527 40.704 155.596 41.056 155.713 41.376C155.831 41.696 156.017 41.9573 156.273 42.16C156.54 42.352 156.897 42.448 157.345 42.448ZM167.062 44.16C165.878 44.16 164.939 43.8187 164.246 43.136C163.553 42.4533 163.179 41.4827 163.126 40.224C163.115 40.1173 163.11 39.984 163.11 39.824C163.11 39.6533 163.115 39.52 163.126 39.424C163.169 38.624 163.35 37.9307 163.67 37.344C164.001 36.7573 164.454 36.3093 165.03 36C165.606 35.68 166.283 35.52 167.062 35.52C167.926 35.52 168.651 35.7013 169.238 36.064C169.825 36.416 170.267 36.912 170.566 37.552C170.865 38.1813 171.014 38.912 171.014 39.744V40.08C171.014 40.1867 170.977 40.2773 170.902 40.352C170.827 40.4267 170.731 40.464 170.614 40.464H165.302C165.302 40.464 165.302 40.48 165.302 40.512C165.302 40.544 165.302 40.5707 165.302 40.592C165.313 40.9653 165.382 41.312 165.51 41.632C165.649 41.9413 165.846 42.192 166.102 42.384C166.369 42.576 166.683 42.672 167.046 42.672C167.345 42.672 167.595 42.6293 167.798 42.544C168.001 42.448 168.166 42.3413 168.294 42.224C168.422 42.1067 168.513 42.0107 168.566 41.936C168.662 41.808 168.737 41.7333 168.79 41.712C168.854 41.68 168.945 41.664 169.062 41.664H170.438C170.545 41.664 170.63 41.696 170.694 41.76C170.769 41.824 170.801 41.904 170.79 42C170.779 42.1707 170.689 42.3787 170.518 42.624C170.358 42.8693 170.123 43.1093 169.814 43.344C169.505 43.5787 169.115 43.776 168.646 43.936C168.187 44.0853 167.659 44.16 167.062 44.16ZM165.302 39.12H168.838V39.072C168.838 38.656 168.769 38.2933 168.63 37.984C168.491 37.6747 168.289 37.4293 168.022 37.248C167.755 37.0667 167.435 36.976 167.062 36.976C166.689 36.976 166.369 37.0667 166.102 37.248C165.835 37.4293 165.633 37.6747 165.494 37.984C165.366 38.2933 165.302 38.656 165.302 39.072V39.12ZM173.096 44C172.99 44 172.899 43.9627 172.824 43.888C172.75 43.8133 172.712 43.7227 172.712 43.616V36.08C172.712 35.9627 172.75 35.8667 172.824 35.792C172.899 35.7173 172.99 35.68 173.096 35.68H174.392C174.499 35.68 174.59 35.7173 174.664 35.792C174.75 35.8667 174.792 35.9627 174.792 36.08V36.736C175.038 36.3947 175.352 36.1333 175.736 35.952C176.131 35.7707 176.584 35.68 177.096 35.68H177.752C177.87 35.68 177.96 35.7173 178.024 35.792C178.099 35.8667 178.136 35.9573 178.136 36.064V37.216C178.136 37.3227 178.099 37.4133 178.024 37.488C177.96 37.5627 177.87 37.6 177.752 37.6H176.504C175.992 37.6 175.592 37.744 175.304 38.032C175.027 38.32 174.888 38.7147 174.888 39.216V43.616C174.888 43.7227 174.851 43.8133 174.776 43.888C174.702 43.9627 174.606 44 174.488 44H173.096ZM183.019 47.52C182.24 47.52 181.6 47.4187 181.099 47.216C180.598 47.0133 180.203 46.768 179.915 46.48C179.627 46.192 179.419 45.904 179.291 45.616C179.174 45.3387 179.11 45.12 179.099 44.96C179.088 44.8533 179.12 44.7573 179.195 44.672C179.28 44.5973 179.376 44.56 179.483 44.56H180.875C180.982 44.56 181.067 44.5813 181.131 44.624C181.195 44.6773 181.248 44.768 181.291 44.896C181.355 45.0347 181.44 45.184 181.547 45.344C181.654 45.504 181.814 45.6373 182.027 45.744C182.251 45.8613 182.555 45.92 182.939 45.92C183.344 45.92 183.686 45.8613 183.963 45.744C184.24 45.6267 184.448 45.4293 184.587 45.152C184.736 44.8747 184.811 44.4907 184.811 44V42.912C184.555 43.2213 184.224 43.472 183.819 43.664C183.424 43.856 182.934 43.952 182.347 43.952C181.771 43.952 181.275 43.8613 180.859 43.68C180.443 43.488 180.096 43.2267 179.819 42.896C179.542 42.5547 179.328 42.1547 179.179 41.696C179.04 41.2373 178.96 40.7307 178.939 40.176C178.928 39.888 178.928 39.6 178.939 39.312C178.96 38.7787 179.04 38.2827 179.179 37.824C179.318 37.3653 179.526 36.9653 179.803 36.624C180.091 36.272 180.443 36 180.859 35.808C181.275 35.616 181.771 35.52 182.347 35.52C182.955 35.52 183.467 35.6373 183.883 35.872C184.299 36.096 184.64 36.3787 184.907 36.72V36.08C184.907 35.9627 184.944 35.8667 185.019 35.792C185.094 35.7173 185.184 35.68 185.291 35.68H186.587C186.694 35.68 186.784 35.7173 186.859 35.792C186.934 35.8667 186.971 35.9627 186.971 36.08L186.987 43.792C186.987 44.56 186.843 45.2213 186.555 45.776C186.267 46.3307 185.83 46.7573 185.243 47.056C184.667 47.3653 183.926 47.52 183.019 47.52ZM182.939 42.256C183.376 42.256 183.728 42.16 183.995 41.968C184.262 41.776 184.459 41.5253 184.587 41.216C184.715 40.9067 184.79 40.592 184.811 40.272C184.822 40.1333 184.827 39.9573 184.827 39.744C184.827 39.5307 184.822 39.36 184.811 39.232C184.79 38.9013 184.715 38.5867 184.587 38.288C184.459 37.9787 184.262 37.728 183.995 37.536C183.728 37.3333 183.376 37.232 182.939 37.232C182.502 37.232 182.15 37.3333 181.883 37.536C181.616 37.728 181.424 37.984 181.307 38.304C181.2 38.624 181.136 38.976 181.115 39.36C181.094 39.616 181.094 39.8773 181.115 40.144C181.136 40.5173 181.2 40.8693 181.307 41.2C181.424 41.52 181.616 41.776 181.883 41.968C182.15 42.16 182.502 42.256 182.939 42.256ZM191.535 44.16C190.98 44.16 190.479 44.0533 190.031 43.84C189.583 43.616 189.225 43.3227 188.959 42.96C188.703 42.5867 188.575 42.1707 188.575 41.712C188.575 40.9653 188.873 40.3733 189.471 39.936C190.079 39.488 190.879 39.1893 191.871 39.04L194.063 38.72V38.384C194.063 37.936 193.951 37.5893 193.727 37.344C193.503 37.0987 193.119 36.976 192.575 36.976C192.191 36.976 191.876 37.056 191.631 37.216C191.396 37.3653 191.22 37.568 191.103 37.824C191.017 37.9627 190.895 38.032 190.735 38.032H189.471C189.353 38.032 189.263 38 189.199 37.936C189.145 37.872 189.118 37.7867 189.118 37.68C189.129 37.5093 189.199 37.3013 189.327 37.056C189.455 36.8107 189.657 36.576 189.935 36.352C190.212 36.1173 190.569 35.92 191.007 35.76C191.444 35.6 191.972 35.52 192.591 35.52C193.263 35.52 193.828 35.6053 194.287 35.776C194.756 35.936 195.129 36.1547 195.407 36.432C195.684 36.7093 195.887 37.0347 196.015 37.408C196.143 37.7813 196.207 38.176 196.207 38.592V43.616C196.207 43.7227 196.169 43.8133 196.095 43.888C196.02 43.9627 195.929 44 195.823 44H194.527C194.409 44 194.313 43.9627 194.239 43.888C194.175 43.8133 194.143 43.7227 194.143 43.616V42.992C194.004 43.1947 193.817 43.3867 193.583 43.568C193.348 43.7387 193.06 43.8827 192.719 44C192.388 44.1067 191.993 44.16 191.535 44.16ZM192.079 42.64C192.452 42.64 192.788 42.56 193.087 42.4C193.396 42.24 193.636 41.9947 193.807 41.664C193.988 41.3227 194.079 40.896 194.079 40.384V40.048L192.479 40.304C191.849 40.4 191.38 40.5547 191.071 40.768C190.761 40.9813 190.607 41.2427 190.607 41.552C190.607 41.7867 190.676 41.9893 190.815 42.16C190.964 42.32 191.151 42.4427 191.375 42.528C191.599 42.6027 191.833 42.64 192.079 42.64ZM198.643 44C198.536 44 198.446 43.9627 198.371 43.888C198.296 43.8133 198.259 43.7227 198.259 43.616V36.08C198.259 35.9627 198.296 35.8667 198.371 35.792C198.446 35.7173 198.536 35.68 198.643 35.68H199.939C200.046 35.68 200.136 35.7173 200.211 35.792C200.296 35.8667 200.339 35.9627 200.339 36.08V36.736C200.584 36.3947 200.899 36.1333 201.283 35.952C201.678 35.7707 202.131 35.68 202.643 35.68H203.299C203.416 35.68 203.507 35.7173 203.571 35.792C203.646 35.8667 203.683 35.9573 203.683 36.064V37.216C203.683 37.3227 203.646 37.4133 203.571 37.488C203.507 37.5627 203.416 37.6 203.299 37.6H202.051C201.539 37.6 201.139 37.744 200.851 38.032C200.574 38.32 200.435 38.7147 200.435 39.216V43.616C200.435 43.7227 200.398 43.8133 200.323 43.888C200.248 43.9627 200.152 44 200.035 44H198.643ZM208.691 44C208.051 44 207.512 43.888 207.075 43.664C206.638 43.44 206.312 43.1093 206.099 42.672C205.886 42.224 205.779 41.6693 205.779 41.008V37.376H204.515C204.408 37.376 204.318 37.3387 204.243 37.264C204.168 37.1893 204.131 37.0987 204.131 36.992V36.064C204.131 35.9573 204.168 35.8667 204.243 35.792C204.318 35.7173 204.408 35.68 204.515 35.68H205.779V33.024C205.779 32.9173 205.811 32.8267 205.875 32.752C205.95 32.6773 206.046 32.64 206.163 32.64H207.459C207.566 32.64 207.656 32.6773 207.731 32.752C207.806 32.8267 207.843 32.9173 207.843 33.024V35.68H209.843C209.95 35.68 210.04 35.7173 210.115 35.792C210.19 35.8667 210.227 35.9573 210.227 36.064V36.992C210.227 37.0987 210.19 37.1893 210.115 37.264C210.04 37.3387 209.95 37.376 209.843 37.376H207.843V40.848C207.843 41.2853 207.918 41.6267 208.067 41.872C208.227 42.1173 208.499 42.24 208.883 42.24H209.987C210.094 42.24 210.184 42.2773 210.259 42.352C210.334 42.4267 210.371 42.5173 210.371 42.624V43.616C210.371 43.7227 210.334 43.8133 210.259 43.888C210.184 43.9627 210.094 44 209.987 44H208.691ZM215.374 44.16C214.19 44.16 213.252 43.8187 212.558 43.136C211.865 42.4533 211.492 41.4827 211.438 40.224C211.428 40.1173 211.422 39.984 211.422 39.824C211.422 39.6533 211.428 39.52 211.438 39.424C211.481 38.624 211.662 37.9307 211.982 37.344C212.313 36.7573 212.766 36.3093 213.342 36C213.918 35.68 214.596 35.52 215.374 35.52C216.238 35.52 216.964 35.7013 217.55 36.064C218.137 36.416 218.58 36.912 218.878 37.552C219.177 38.1813 219.326 38.912 219.326 39.744V40.08C219.326 40.1867 219.289 40.2773 219.214 40.352C219.14 40.4267 219.044 40.464 218.926 40.464H213.614C213.614 40.464 213.614 40.48 213.614 40.512C213.614 40.544 213.614 40.5707 213.614 40.592C213.625 40.9653 213.694 41.312 213.822 41.632C213.961 41.9413 214.158 42.192 214.414 42.384C214.681 42.576 214.996 42.672 215.358 42.672C215.657 42.672 215.908 42.6293 216.11 42.544C216.313 42.448 216.478 42.3413 216.606 42.224C216.734 42.1067 216.825 42.0107 216.878 41.936C216.974 41.808 217.049 41.7333 217.102 41.712C217.166 41.68 217.257 41.664 217.374 41.664H218.75C218.857 41.664 218.942 41.696 219.006 41.76C219.081 41.824 219.113 41.904 219.102 42C219.092 42.1707 219.001 42.3787 218.83 42.624C218.67 42.8693 218.436 43.1093 218.126 43.344C217.817 43.5787 217.428 43.776 216.958 43.936C216.5 44.0853 215.972 44.16 215.374 44.16ZM213.614 39.12H217.15V39.072C217.15 38.656 217.081 38.2933 216.942 37.984C216.804 37.6747 216.601 37.4293 216.334 37.248C216.068 37.0667 215.748 36.976 215.374 36.976C215.001 36.976 214.681 37.0667 214.414 37.248C214.148 37.4293 213.945 37.6747 213.806 37.984C213.678 38.2933 213.614 38.656 213.614 39.072V39.12ZM221.409 44C221.302 44 221.211 43.9627 221.137 43.888C221.062 43.8133 221.025 43.7227 221.025 43.616V36.064C221.025 35.9573 221.062 35.8667 221.137 35.792C221.211 35.7173 221.302 35.68 221.409 35.68H222.721C222.827 35.68 222.918 35.7173 222.993 35.792C223.067 35.8667 223.105 35.9573 223.105 36.064V36.72C223.382 36.3787 223.734 36.096 224.161 35.872C224.598 35.6373 225.137 35.52 225.777 35.52C226.427 35.52 226.993 35.6693 227.473 35.968C227.953 36.256 228.321 36.6667 228.577 37.2C228.843 37.7333 228.977 38.3733 228.977 39.12V43.616C228.977 43.7227 228.939 43.8133 228.865 43.888C228.79 43.9627 228.699 44 228.593 44H227.185C227.078 44 226.987 43.9627 226.913 43.888C226.838 43.8133 226.801 43.7227 226.801 43.616V39.216C226.801 38.5973 226.646 38.112 226.337 37.76C226.038 37.408 225.601 37.232 225.025 37.232C224.47 37.232 224.027 37.408 223.697 37.76C223.366 38.112 223.201 38.5973 223.201 39.216V43.616C223.201 43.7227 223.163 43.8133 223.089 43.888C223.014 43.9627 222.923 44 222.817 44H221.409Z" fill="white"/>
<path opacity="0.6" d="M59.632 74C59.5253 74 59.4347 73.9627 59.36 73.888C59.2853 73.8133 59.248 73.7227 59.248 73.616V63.2C59.248 63.0827 59.2853 62.9867 59.36 62.912C59.4347 62.8373 59.5253 62.8 59.632 62.8H66.576C66.6933 62.8 66.7893 62.8373 66.864 62.912C66.9387 62.9867 66.976 63.0827 66.976 63.2V64.32C66.976 64.4373 66.9387 64.5333 66.864 64.608C66.7893 64.672 66.6933 64.704 66.576 64.704H61.44V67.744H66.256C66.3733 67.744 66.4693 67.7813 66.544 67.856C66.6187 67.9307 66.656 68.0267 66.656 68.144V69.264C66.656 69.3707 66.6187 69.4613 66.544 69.536C66.4693 69.6107 66.3733 69.648 66.256 69.648H61.44V73.616C61.44 73.7227 61.4027 73.8133 61.328 73.888C61.2533 73.9627 61.1573 74 61.04 74H59.632ZM69.19 74C69.0833 74 68.9927 73.9627 68.918 73.888C68.8433 73.8133 68.806 73.7227 68.806 73.616V66.064C68.806 65.9573 68.8433 65.8667 68.918 65.792C68.9927 65.7173 69.0833 65.68 69.19 65.68H70.518C70.6353 65.68 70.726 65.7173 70.79 65.792C70.8647 65.8667 70.902 65.9573 70.902 66.064V73.616C70.902 73.7227 70.8647 73.8133 70.79 73.888C70.726 73.9627 70.6353 74 70.518 74H69.19ZM69.126 64.304C69.0087 64.304 68.9127 64.272 68.838 64.208C68.774 64.1333 68.742 64.0373 68.742 63.92V62.768C68.742 62.6613 68.774 62.5707 68.838 62.496C68.9127 62.4213 69.0087 62.384 69.126 62.384H70.582C70.6993 62.384 70.7953 62.4213 70.87 62.496C70.9447 62.5707 70.982 62.6613 70.982 62.768V63.92C70.982 64.0373 70.9447 64.1333 70.87 64.208C70.7953 64.272 70.6993 64.304 70.582 64.304H69.126ZM73.7369 74C73.6302 74 73.5395 73.9627 73.4649 73.888C73.3902 73.8133 73.3529 73.7227 73.3529 73.616V66.064C73.3529 65.9573 73.3902 65.8667 73.4649 65.792C73.5395 65.7173 73.6302 65.68 73.7369 65.68H75.0489C75.1555 65.68 75.2462 65.7173 75.3209 65.792C75.3955 65.8667 75.4329 65.9573 75.4329 66.064V66.72C75.7102 66.3787 76.0622 66.096 76.4889 65.872C76.9262 65.6373 77.4649 65.52 78.1049 65.52C78.7555 65.52 79.3209 65.6693 79.8009 65.968C80.2809 66.256 80.6489 66.6667 80.9049 67.2C81.1715 67.7333 81.3049 68.3733 81.3049 69.12V73.616C81.3049 73.7227 81.2675 73.8133 81.1929 73.888C81.1182 73.9627 81.0275 74 80.9209 74H79.5129C79.4062 74 79.3155 73.9627 79.2409 73.888C79.1662 73.8133 79.1289 73.7227 79.1289 73.616V69.216C79.1289 68.5973 78.9742 68.112 78.6649 67.76C78.3662 67.408 77.9289 67.232 77.3529 67.232C76.7982 67.232 76.3555 67.408 76.0249 67.76C75.6942 68.112 75.5289 68.5973 75.5289 69.216V73.616C75.5289 73.7227 75.4915 73.8133 75.4169 73.888C75.3422 73.9627 75.2515 74 75.1449 74H73.7369ZM83.7213 74C83.6146 74 83.5239 73.9627 83.4493 73.888C83.3746 73.8133 83.3372 73.7227 83.3372 73.616V66.064C83.3372 65.9573 83.3746 65.8667 83.4493 65.792C83.5239 65.7173 83.6146 65.68 83.7213 65.68H85.0493C85.1666 65.68 85.2573 65.7173 85.3213 65.792C85.3959 65.8667 85.4333 65.9573 85.4333 66.064V73.616C85.4333 73.7227 85.3959 73.8133 85.3213 73.888C85.2573 73.9627 85.1666 74 85.0493 74H83.7213ZM83.6573 64.304C83.5399 64.304 83.4439 64.272 83.3693 64.208C83.3053 64.1333 83.2733 64.0373 83.2733 63.92V62.768C83.2733 62.6613 83.3053 62.5707 83.3693 62.496C83.4439 62.4213 83.5399 62.384 83.6573 62.384H85.1133C85.2306 62.384 85.3266 62.4213 85.4013 62.496C85.4759 62.5707 85.5133 62.6613 85.5133 62.768V63.92C85.5133 64.0373 85.4759 64.1333 85.4013 64.208C85.3266 64.272 85.2306 64.304 85.1133 64.304H83.6573ZM90.8955 74.16C90.2555 74.16 89.7062 74.0853 89.2475 73.936C88.7995 73.7867 88.4315 73.6 88.1435 73.376C87.8555 73.152 87.6422 72.928 87.5035 72.704C87.3648 72.48 87.2902 72.2933 87.2795 72.144C87.2688 72.0267 87.3008 71.936 87.3755 71.872C87.4608 71.7973 87.5515 71.76 87.6475 71.76H88.9115C88.9542 71.76 88.9915 71.7653 89.0235 71.776C89.0555 71.7867 89.0982 71.8187 89.1515 71.872C89.2902 71.9893 89.4342 72.112 89.5835 72.24C89.7435 72.368 89.9302 72.48 90.1435 72.576C90.3568 72.6613 90.6235 72.704 90.9435 72.704C91.3595 72.704 91.7062 72.624 91.9835 72.464C92.2715 72.2933 92.4155 72.0533 92.4155 71.744C92.4155 71.52 92.3515 71.3387 92.2235 71.2C92.1062 71.0613 91.8822 70.9387 91.5515 70.832C91.2208 70.7147 90.7515 70.592 90.1435 70.464C89.5462 70.3253 89.0502 70.1493 88.6555 69.936C88.2608 69.7227 87.9675 69.456 87.7755 69.136C87.5835 68.816 87.4875 68.4427 87.4875 68.016C87.4875 67.6 87.6102 67.2053 87.8555 66.832C88.1115 66.448 88.4848 66.1333 88.9755 65.888C89.4768 65.6427 90.0955 65.52 90.8315 65.52C91.4075 65.52 91.9088 65.5947 92.3355 65.744C92.7622 65.8827 93.1142 66.0587 93.3915 66.272C93.6795 66.4853 93.8982 66.704 94.0475 66.928C94.1968 67.1413 94.2768 67.328 94.2875 67.488C94.2982 67.6053 94.2662 67.7013 94.1915 67.776C94.1168 67.84 94.0315 67.872 93.9355 67.872H92.7515C92.6982 67.872 92.6502 67.8613 92.6075 67.84C92.5648 67.8187 92.5222 67.792 92.4795 67.76C92.3622 67.6533 92.2342 67.5413 92.0955 67.424C91.9568 67.3067 91.7862 67.2053 91.5835 67.12C91.3915 67.024 91.1355 66.976 90.8155 66.976C90.4102 66.976 90.1008 67.0667 89.8875 67.248C89.6742 67.4187 89.5675 67.6373 89.5675 67.904C89.5675 68.0853 89.6155 68.2453 89.7115 68.384C89.8182 68.512 90.0262 68.6347 90.3355 68.752C90.6448 68.8693 91.1142 68.992 91.7435 69.12C92.4582 69.248 93.0235 69.44 93.4395 69.696C93.8662 69.9413 94.1648 70.2293 94.3355 70.56C94.5168 70.88 94.6075 71.2373 94.6075 71.632C94.6075 72.112 94.4635 72.544 94.1755 72.928C93.8982 73.312 93.4822 73.616 92.9275 73.84C92.3835 74.0533 91.7062 74.16 90.8955 74.16ZM96.6591 74C96.5525 74 96.4618 73.9627 96.3871 73.888C96.3125 73.8133 96.2751 73.7227 96.2751 73.616V63.024C96.2751 62.9173 96.3125 62.8267 96.3871 62.752C96.4618 62.6773 96.5525 62.64 96.6591 62.64H98.0831C98.2005 62.64 98.2911 62.6773 98.3551 62.752C98.4298 62.8267 98.4671 62.9173 98.4671 63.024V66.672C98.7551 66.3307 99.1071 66.0533 99.5231 65.84C99.9391 65.6267 100.451 65.52 101.059 65.52C101.71 65.52 102.275 65.6693 102.755 65.968C103.246 66.256 103.624 66.6667 103.891 67.2C104.158 67.7333 104.291 68.3733 104.291 69.12V73.616C104.291 73.7227 104.254 73.8133 104.179 73.888C104.104 73.9627 104.014 74 103.907 74H102.467C102.36 74 102.27 73.9627 102.195 73.888C102.12 73.8133 102.083 73.7227 102.083 73.616V69.216C102.083 68.5973 101.928 68.112 101.619 67.76C101.32 67.408 100.883 67.232 100.307 67.232C99.7525 67.232 99.3045 67.408 98.9631 67.76C98.6325 68.112 98.4671 68.5973 98.4671 69.216V73.616C98.4671 73.7227 98.4298 73.8133 98.3551 73.888C98.2911 73.9627 98.2005 74 98.0831 74H96.6591ZM109.906 74.16C108.722 74.16 107.783 73.8187 107.09 73.136C106.396 72.4533 106.023 71.4827 105.97 70.224C105.959 70.1173 105.954 69.984 105.954 69.824C105.954 69.6533 105.959 69.52 105.97 69.424C106.012 68.624 106.194 67.9307 106.514 67.344C106.844 66.7573 107.298 66.3093 107.874 66C108.45 65.68 109.127 65.52 109.906 65.52C110.77 65.52 111.495 65.7013 112.082 66.064C112.668 66.416 113.111 66.912 113.41 67.552C113.708 68.1813 113.858 68.912 113.858 69.744V70.08C113.858 70.1867 113.82 70.2773 113.746 70.352C113.671 70.4267 113.575 70.464 113.458 70.464H108.146C108.146 70.464 108.146 70.48 108.146 70.512C108.146 70.544 108.146 70.5707 108.146 70.592C108.156 70.9653 108.226 71.312 108.354 71.632C108.492 71.9413 108.69 72.192 108.946 72.384C109.212 72.576 109.527 72.672 109.89 72.672C110.188 72.672 110.439 72.6293 110.642 72.544C110.844 72.448 111.01 72.3413 111.138 72.224C111.266 72.1067 111.356 72.0107 111.41 71.936C111.506 71.808 111.58 71.7333 111.634 71.712C111.698 71.68 111.788 71.664 111.906 71.664H113.282C113.388 71.664 113.474 71.696 113.538 71.76C113.612 71.824 113.644 71.904 113.634 72C113.623 72.1707 113.532 72.3787 113.362 72.624C113.202 72.8693 112.967 73.1093 112.658 73.344C112.348 73.5787 111.959 73.776 111.49 73.936C111.031 74.0853 110.503 74.16 109.906 74.16ZM108.146 69.12H111.682V69.072C111.682 68.656 111.612 68.2933 111.474 67.984C111.335 67.6747 111.132 67.4293 110.866 67.248C110.599 67.0667 110.279 66.976 109.906 66.976C109.532 66.976 109.212 67.0667 108.946 67.248C108.679 67.4293 108.476 67.6747 108.338 67.984C108.21 68.2933 108.146 68.656 108.146 69.072V69.12ZM118.644 74.16C118.089 74.16 117.599 74.0693 117.172 73.888C116.756 73.696 116.409 73.4293 116.132 73.088C115.855 72.7467 115.641 72.3467 115.492 71.888C115.343 71.4187 115.257 70.9067 115.236 70.352C115.225 70.16 115.22 69.9893 115.22 69.84C115.22 69.68 115.225 69.504 115.236 69.312C115.257 68.7787 115.337 68.2827 115.476 67.824C115.625 67.3653 115.839 66.9653 116.116 66.624C116.404 66.272 116.756 66 117.172 65.808C117.599 65.616 118.089 65.52 118.644 65.52C119.22 65.52 119.705 65.6213 120.1 65.824C120.505 66.016 120.841 66.2667 121.108 66.576V63.024C121.108 62.9173 121.14 62.8267 121.204 62.752C121.279 62.6773 121.375 62.64 121.492 62.64H122.852C122.959 62.64 123.049 62.6773 123.124 62.752C123.199 62.8267 123.236 62.9173 123.236 63.024V73.616C123.236 73.7227 123.199 73.8133 123.124 73.888C123.049 73.9627 122.959 74 122.852 74H121.588C121.471 74 121.375 73.9627 121.3 73.888C121.236 73.8133 121.204 73.7227 121.204 73.616V73.024C120.937 73.3547 120.596 73.6267 120.18 73.84C119.775 74.0533 119.263 74.16 118.644 74.16ZM119.236 72.448C119.684 72.448 120.041 72.3467 120.308 72.144C120.575 71.9413 120.772 71.6853 120.9 71.376C121.028 71.056 121.097 70.7307 121.108 70.4C121.119 70.208 121.124 70.0053 121.124 69.792C121.124 69.568 121.119 69.36 121.108 69.168C121.097 68.848 121.023 68.544 120.884 68.256C120.745 67.9573 120.543 67.712 120.276 67.52C120.009 67.328 119.663 67.232 119.236 67.232C118.788 67.232 118.431 67.3333 118.164 67.536C117.908 67.728 117.721 67.984 117.604 68.304C117.487 68.624 117.417 68.976 117.396 69.36C117.385 69.68 117.385 70 117.396 70.32C117.417 70.704 117.487 71.056 117.604 71.376C117.721 71.696 117.908 71.9573 118.164 72.16C118.431 72.352 118.788 72.448 119.236 72.448ZM129.617 74C129.499 74 129.403 73.9627 129.329 73.888C129.254 73.8133 129.217 73.7227 129.217 73.616V63.2C129.217 63.0827 129.254 62.9867 129.329 62.912C129.403 62.8373 129.499 62.8 129.617 62.8H130.881C131.03 62.8 131.142 62.8427 131.217 62.928C131.291 63.0027 131.339 63.0613 131.361 63.104L134.449 68.864L137.569 63.104C137.59 63.0613 137.638 63.0027 137.713 62.928C137.787 62.8427 137.899 62.8 138.049 62.8H139.297C139.414 62.8 139.51 62.8373 139.585 62.912C139.659 62.9867 139.697 63.0827 139.697 63.2V73.616C139.697 73.7227 139.659 73.8133 139.585 73.888C139.51 73.9627 139.414 74 139.297 74H137.953C137.835 74 137.739 73.9627 137.665 73.888C137.601 73.8133 137.569 73.7227 137.569 73.616V66.688L135.329 70.96C135.275 71.056 135.206 71.1413 135.121 71.216C135.035 71.28 134.923 71.312 134.785 71.312H134.129C133.979 71.312 133.862 71.28 133.777 71.216C133.702 71.1413 133.638 71.056 133.585 70.96L131.345 66.688V73.616C131.345 73.7227 131.307 73.8133 131.233 73.888C131.158 73.9627 131.067 74 130.961 74H129.617ZM142.378 74C142.271 74 142.18 73.9627 142.106 73.888C142.031 73.8133 141.993 73.7227 141.993 73.616V66.064C141.993 65.9573 142.031 65.8667 142.106 65.792C142.18 65.7173 142.271 65.68 142.378 65.68H143.706C143.823 65.68 143.914 65.7173 143.978 65.792C144.052 65.8667 144.09 65.9573 144.09 66.064V73.616C144.09 73.7227 144.052 73.8133 143.978 73.888C143.914 73.9627 143.823 74 143.706 74H142.378ZM142.314 64.304C142.196 64.304 142.1 64.272 142.026 64.208C141.962 64.1333 141.93 64.0373 141.93 63.92V62.768C141.93 62.6613 141.962 62.5707 142.026 62.496C142.1 62.4213 142.196 62.384 142.314 62.384H143.77C143.887 62.384 143.983 62.4213 144.058 62.496C144.132 62.5707 144.17 62.6613 144.17 62.768V63.92C144.17 64.0373 144.132 64.1333 144.058 64.208C143.983 64.272 143.887 64.304 143.77 64.304H142.314ZM149.3 74.16C148.746 74.16 148.255 74.0693 147.828 73.888C147.412 73.696 147.066 73.4293 146.788 73.088C146.511 72.7467 146.298 72.3467 146.148 71.888C145.999 71.4187 145.914 70.9067 145.892 70.352C145.882 70.16 145.876 69.9893 145.876 69.84C145.876 69.68 145.882 69.504 145.892 69.312C145.914 68.7787 145.994 68.2827 146.132 67.824C146.282 67.3653 146.495 66.9653 146.772 66.624C147.06 66.272 147.412 66 147.828 65.808C148.255 65.616 148.746 65.52 149.3 65.52C149.876 65.52 150.362 65.6213 150.756 65.824C151.162 66.016 151.498 66.2667 151.764 66.576V63.024C151.764 62.9173 151.796 62.8267 151.86 62.752C151.935 62.6773 152.031 62.64 152.148 62.64H153.508C153.615 62.64 153.706 62.6773 153.78 62.752C153.855 62.8267 153.892 62.9173 153.892 63.024V73.616C153.892 73.7227 153.855 73.8133 153.78 73.888C153.706 73.9627 153.615 74 153.508 74H152.244C152.127 74 152.031 73.9627 151.956 73.888C151.892 73.8133 151.86 73.7227 151.86 73.616V73.024C151.594 73.3547 151.252 73.6267 150.836 73.84C150.431 74.0533 149.919 74.16 149.3 74.16ZM149.892 72.448C150.34 72.448 150.698 72.3467 150.964 72.144C151.231 71.9413 151.428 71.6853 151.556 71.376C151.684 71.056 151.754 70.7307 151.764 70.4C151.775 70.208 151.78 70.0053 151.78 69.792C151.78 69.568 151.775 69.36 151.764 69.168C151.754 68.848 151.679 68.544 151.54 68.256C151.402 67.9573 151.199 67.712 150.932 67.52C150.666 67.328 150.319 67.232 149.892 67.232C149.444 67.232 149.087 67.3333 148.82 67.536C148.564 67.728 148.378 67.984 148.26 68.304C148.143 68.624 148.074 68.976 148.052 69.36C148.042 69.68 148.042 70 148.052 70.32C148.074 70.704 148.143 71.056 148.26 71.376C148.378 71.696 148.564 71.9573 148.82 72.16C149.087 72.352 149.444 72.448 149.892 72.448ZM159.113 74.16C158.558 74.16 158.067 74.0693 157.641 73.888C157.225 73.696 156.878 73.4293 156.601 73.088C156.323 72.7467 156.11 72.3467 155.961 71.888C155.811 71.4187 155.726 70.9067 155.705 70.352C155.694 70.16 155.689 69.9893 155.689 69.84C155.689 69.68 155.694 69.504 155.705 69.312C155.726 68.7787 155.806 68.2827 155.945 67.824C156.094 67.3653 156.307 66.9653 156.585 66.624C156.873 66.272 157.225 66 157.641 65.808C158.067 65.616 158.558 65.52 159.113 65.52C159.689 65.52 160.174 65.6213 160.569 65.824C160.974 66.016 161.31 66.2667 161.577 66.576V63.024C161.577 62.9173 161.609 62.8267 161.673 62.752C161.747 62.6773 161.843 62.64 161.961 62.64H163.321C163.427 62.64 163.518 62.6773 163.593 62.752C163.667 62.8267 163.705 62.9173 163.705 63.024V73.616C163.705 73.7227 163.667 73.8133 163.593 73.888C163.518 73.9627 163.427 74 163.321 74H162.057C161.939 74 161.843 73.9627 161.769 73.888C161.705 73.8133 161.673 73.7227 161.673 73.616V73.024C161.406 73.3547 161.065 73.6267 160.649 73.84C160.243 74.0533 159.731 74.16 159.113 74.16ZM159.705 72.448C160.153 72.448 160.51 72.3467 160.777 72.144C161.043 71.9413 161.241 71.6853 161.369 71.376C161.497 71.056 161.566 70.7307 161.577 70.4C161.587 70.208 161.593 70.0053 161.593 69.792C161.593 69.568 161.587 69.36 161.577 69.168C161.566 68.848 161.491 68.544 161.353 68.256C161.214 67.9573 161.011 67.712 160.745 67.52C160.478 67.328 160.131 67.232 159.705 67.232C159.257 67.232 158.899 67.3333 158.633 67.536C158.377 67.728 158.19 67.984 158.073 68.304C157.955 68.624 157.886 68.976 157.865 69.36C157.854 69.68 157.854 70 157.865 70.32C157.886 70.704 157.955 71.056 158.073 71.376C158.19 71.696 158.377 71.9573 158.633 72.16C158.899 72.352 159.257 72.448 159.705 72.448ZM166.237 74C166.131 74 166.04 73.9627 165.965 73.888C165.891 73.8133 165.853 73.7227 165.853 73.616V63.024C165.853 62.9173 165.891 62.8267 165.965 62.752C166.04 62.6773 166.131 62.64 166.237 62.64H167.565C167.672 62.64 167.763 62.6773 167.837 62.752C167.912 62.8267 167.949 62.9173 167.949 63.024V73.616C167.949 73.7227 167.912 73.8133 167.837 73.888C167.763 73.9627 167.672 74 167.565 74H166.237ZM173.656 74.16C172.472 74.16 171.533 73.8187 170.84 73.136C170.146 72.4533 169.773 71.4827 169.72 70.224C169.709 70.1173 169.704 69.984 169.704 69.824C169.704 69.6533 169.709 69.52 169.72 69.424C169.762 68.624 169.944 67.9307 170.264 67.344C170.594 66.7573 171.048 66.3093 171.624 66C172.2 65.68 172.877 65.52 173.656 65.52C174.52 65.52 175.245 65.7013 175.832 66.064C176.418 66.416 176.861 66.912 177.16 67.552C177.458 68.1813 177.608 68.912 177.608 69.744V70.08C177.608 70.1867 177.57 70.2773 177.496 70.352C177.421 70.4267 177.325 70.464 177.208 70.464H171.896C171.896 70.464 171.896 70.48 171.896 70.512C171.896 70.544 171.896 70.5707 171.896 70.592C171.906 70.9653 171.976 71.312 172.104 71.632C172.242 71.9413 172.44 72.192 172.696 72.384C172.962 72.576 173.277 72.672 173.64 72.672C173.938 72.672 174.189 72.6293 174.392 72.544C174.594 72.448 174.76 72.3413 174.888 72.224C175.016 72.1067 175.106 72.0107 175.16 71.936C175.256 71.808 175.33 71.7333 175.384 71.712C175.448 71.68 175.538 71.664 175.656 71.664H177.032C177.138 71.664 177.224 71.696 177.288 71.76C177.362 71.824 177.394 71.904 177.384 72C177.373 72.1707 177.282 72.3787 177.112 72.624C176.952 72.8693 176.717 73.1093 176.408 73.344C176.098 73.5787 175.709 73.776 175.24 73.936C174.781 74.0853 174.253 74.16 173.656 74.16ZM171.896 69.12H175.432V69.072C175.432 68.656 175.362 68.2933 175.224 67.984C175.085 67.6747 174.882 67.4293 174.616 67.248C174.349 67.0667 174.029 66.976 173.656 66.976C173.282 66.976 172.962 67.0667 172.696 67.248C172.429 67.4293 172.226 67.6747 172.088 67.984C171.96 68.2933 171.896 68.656 171.896 69.072V69.12ZM182.458 74.16C181.818 74.16 181.269 74.0853 180.81 73.936C180.362 73.7867 179.994 73.6 179.706 73.376C179.418 73.152 179.205 72.928 179.066 72.704C178.927 72.48 178.853 72.2933 178.842 72.144C178.831 72.0267 178.863 71.936 178.938 71.872C179.023 71.7973 179.114 71.76 179.21 71.76H180.474C180.517 71.76 180.554 71.7653 180.586 71.776C180.618 71.7867 180.661 71.8187 180.714 71.872C180.853 71.9893 180.997 72.112 181.146 72.24C181.306 72.368 181.493 72.48 181.706 72.576C181.919 72.6613 182.186 72.704 182.506 72.704C182.922 72.704 183.269 72.624 183.546 72.464C183.834 72.2933 183.978 72.0533 183.978 71.744C183.978 71.52 183.914 71.3387 183.786 71.2C183.669 71.0613 183.445 70.9387 183.114 70.832C182.783 70.7147 182.314 70.592 181.706 70.464C181.109 70.3253 180.613 70.1493 180.218 69.936C179.823 69.7227 179.53 69.456 179.338 69.136C179.146 68.816 179.05 68.4427 179.05 68.016C179.05 67.6 179.173 67.2053 179.418 66.832C179.674 66.448 180.047 66.1333 180.538 65.888C181.039 65.6427 181.658 65.52 182.394 65.52C182.97 65.52 183.471 65.5947 183.898 65.744C184.325 65.8827 184.677 66.0587 184.954 66.272C185.242 66.4853 185.461 66.704 185.61 66.928C185.759 67.1413 185.839 67.328 185.85 67.488C185.861 67.6053 185.829 67.7013 185.754 67.776C185.679 67.84 185.594 67.872 185.498 67.872H184.314C184.261 67.872 184.213 67.8613 184.17 67.84C184.127 67.8187 184.085 67.792 184.042 67.76C183.925 67.6533 183.797 67.5413 183.658 67.424C183.519 67.3067 183.349 67.2053 183.146 67.12C182.954 67.024 182.698 66.976 182.378 66.976C181.973 66.976 181.663 67.0667 181.45 67.248C181.237 67.4187 181.13 67.6373 181.13 67.904C181.13 68.0853 181.178 68.2453 181.274 68.384C181.381 68.512 181.589 68.6347 181.898 68.752C182.207 68.8693 182.677 68.992 183.306 69.12C184.021 69.248 184.586 69.44 185.002 69.696C185.429 69.9413 185.727 70.2293 185.898 70.56C186.079 70.88 186.17 71.2373 186.17 71.632C186.17 72.112 186.026 72.544 185.738 72.928C185.461 73.312 185.045 73.616 184.49 73.84C183.946 74.0533 183.269 74.16 182.458 74.16ZM191.422 74.16C190.654 74.16 189.976 74.016 189.39 73.728C188.814 73.44 188.36 73.024 188.03 72.48C187.71 71.9253 187.534 71.2587 187.502 70.48C187.491 70.32 187.486 70.112 187.486 69.856C187.486 69.5893 187.491 69.3707 187.502 69.2C187.534 68.4213 187.71 67.76 188.03 67.216C188.36 66.6613 188.814 66.24 189.39 65.952C189.976 65.664 190.654 65.52 191.422 65.52C192.104 65.52 192.686 65.616 193.166 65.808C193.646 66 194.04 66.24 194.35 66.528C194.659 66.816 194.888 67.12 195.038 67.44C195.198 67.7493 195.283 68.032 195.294 68.288C195.304 68.4053 195.267 68.5013 195.182 68.576C195.107 68.64 195.016 68.672 194.91 68.672H193.502C193.395 68.672 193.31 68.6453 193.246 68.592C193.192 68.5387 193.139 68.4587 193.086 68.352C192.926 67.9253 192.712 67.6267 192.446 67.456C192.19 67.2747 191.859 67.184 191.454 67.184C190.92 67.184 190.494 67.3547 190.174 67.696C189.864 68.0267 189.699 68.5547 189.678 69.28C189.656 69.6853 189.656 70.0587 189.678 70.4C189.699 71.136 189.864 71.6693 190.174 72C190.494 72.3307 190.92 72.496 191.454 72.496C191.87 72.496 192.206 72.4107 192.462 72.24C192.718 72.0587 192.926 71.7547 193.086 71.328C193.139 71.2213 193.192 71.1413 193.246 71.088C193.31 71.0347 193.395 71.008 193.502 71.008H194.91C195.016 71.008 195.107 71.0453 195.182 71.12C195.267 71.184 195.304 71.2747 195.294 71.392C195.283 71.584 195.23 71.8027 195.134 72.048C195.048 72.2827 194.904 72.528 194.702 72.784C194.51 73.0293 194.264 73.2587 193.966 73.472C193.667 73.6747 193.304 73.84 192.878 73.968C192.462 74.096 191.976 74.16 191.422 74.16ZM197.362 74C197.256 74 197.165 73.9627 197.09 73.888C197.016 73.8133 196.978 73.7227 196.978 73.616V63.024C196.978 62.9173 197.016 62.8267 197.09 62.752C197.165 62.6773 197.256 62.64 197.362 62.64H198.786C198.904 62.64 198.994 62.6773 199.058 62.752C199.133 62.8267 199.17 62.9173 199.17 63.024V66.672C199.458 66.3307 199.81 66.0533 200.226 65.84C200.642 65.6267 201.154 65.52 201.762 65.52C202.413 65.52 202.978 65.6693 203.458 65.968C203.949 66.256 204.328 66.6667 204.594 67.2C204.861 67.7333 204.994 68.3733 204.994 69.12V73.616C204.994 73.7227 204.957 73.8133 204.882 73.888C204.808 73.9627 204.717 74 204.61 74H203.17C203.064 74 202.973 73.9627 202.898 73.888C202.824 73.8133 202.786 73.7227 202.786 73.616V69.216C202.786 68.5973 202.632 68.112 202.322 67.76C202.024 67.408 201.586 67.232 201.01 67.232C200.456 67.232 200.008 67.408 199.666 67.76C199.336 68.112 199.17 68.5973 199.17 69.216V73.616C199.17 73.7227 199.133 73.8133 199.058 73.888C198.994 73.9627 198.904 74 198.786 74H197.362ZM210.705 74.16C209.851 74.16 209.131 74.0107 208.545 73.712C207.969 73.4133 207.526 72.992 207.217 72.448C206.918 71.904 206.747 71.2693 206.705 70.544C206.694 70.352 206.689 70.1173 206.689 69.84C206.689 69.5627 206.694 69.328 206.705 69.136C206.747 68.4 206.923 67.7653 207.233 67.232C207.553 66.688 208.001 66.2667 208.577 65.968C209.163 65.6693 209.873 65.52 210.705 65.52C211.537 65.52 212.241 65.6693 212.817 65.968C213.403 66.2667 213.851 66.688 214.161 67.232C214.481 67.7653 214.662 68.4 214.705 69.136C214.715 69.328 214.721 69.5627 214.721 69.84C214.721 70.1173 214.715 70.352 214.705 70.544C214.662 71.2693 214.486 71.904 214.177 72.448C213.878 72.992 213.435 73.4133 212.849 73.712C212.273 74.0107 211.558 74.16 210.705 74.16ZM210.705 72.576C211.27 72.576 211.707 72.4 212.017 72.048C212.326 71.6853 212.497 71.1573 212.529 70.464C212.539 70.304 212.545 70.096 212.545 69.84C212.545 69.584 212.539 69.376 212.529 69.216C212.497 68.5333 212.326 68.0107 212.017 67.648C211.707 67.2853 211.27 67.104 210.705 67.104C210.139 67.104 209.702 67.2853 209.393 67.648C209.083 68.0107 208.913 68.5333 208.881 69.216C208.87 69.376 208.865 69.584 208.865 69.84C208.865 70.096 208.87 70.304 208.881 70.464C208.913 71.1573 209.083 71.6853 209.393 72.048C209.702 72.4 210.139 72.576 210.705 72.576ZM220.174 74.16C219.32 74.16 218.6 74.0107 218.014 73.712C217.438 73.4133 216.995 72.992 216.686 72.448C216.387 71.904 216.216 71.2693 216.174 70.544C216.163 70.352 216.158 70.1173 216.158 69.84C216.158 69.5627 216.163 69.328 216.174 69.136C216.216 68.4 216.392 67.7653 216.702 67.232C217.022 66.688 217.47 66.2667 218.046 65.968C218.632 65.6693 219.342 65.52 220.174 65.52C221.006 65.52 221.71 65.6693 222.286 65.968C222.872 66.2667 223.32 66.688 223.63 67.232C223.95 67.7653 224.131 68.4 224.174 69.136C224.184 69.328 224.19 69.5627 224.19 69.84C224.19 70.1173 224.184 70.352 224.174 70.544C224.131 71.2693 223.955 71.904 223.646 72.448C223.347 72.992 222.904 73.4133 222.318 73.712C221.742 74.0107 221.027 74.16 220.174 74.16ZM220.174 72.576C220.739 72.576 221.176 72.4 221.486 72.048C221.795 71.6853 221.966 71.1573 221.998 70.464C222.008 70.304 222.014 70.096 222.014 69.84C222.014 69.584 222.008 69.376 221.998 69.216C221.966 68.5333 221.795 68.0107 221.486 67.648C221.176 67.2853 220.739 67.104 220.174 67.104C219.608 67.104 219.171 67.2853 218.862 67.648C218.552 68.0107 218.382 68.5333 218.35 69.216C218.339 69.376 218.334 69.584 218.334 69.84C218.334 70.096 218.339 70.304 218.35 70.464C218.382 71.1573 218.552 71.6853 218.862 72.048C219.171 72.4 219.608 72.576 220.174 72.576ZM226.362 74C226.256 74 226.165 73.9627 226.09 73.888C226.016 73.8133 225.978 73.7227 225.978 73.616V63.024C225.978 62.9173 226.016 62.8267 226.09 62.752C226.165 62.6773 226.256 62.64 226.362 62.64H227.69C227.797 62.64 227.888 62.6773 227.962 62.752C228.037 62.8267 228.074 62.9173 228.074 63.024V73.616C228.074 73.7227 228.037 73.8133 227.962 73.888C227.888 73.9627 227.797 74 227.69 74H226.362Z" fill="white"/>
<path opacity="0.6" d="M4.104 74C3.99733 74 3.90667 73.9627 3.832 73.888C3.75733 73.8133 3.72 73.7227 3.72 73.616V72.8C3.72 72.704 3.74133 72.592 3.784 72.464C3.83733 72.3253 3.94933 72.1867 4.12 72.048L6.648 69.536C7.352 68.9813 7.91733 68.512 8.344 68.128C8.78133 67.7333 9.096 67.376 9.288 67.056C9.49067 66.7253 9.592 66.4 9.592 66.08C9.592 65.6 9.45867 65.2107 9.192 64.912C8.936 64.6133 8.52533 64.464 7.96 64.464C7.58667 64.464 7.272 64.544 7.016 64.704C6.76 64.8533 6.55733 65.056 6.408 65.312C6.26933 65.568 6.17333 65.8507 6.12 66.16C6.09867 66.2987 6.04 66.3947 5.944 66.448C5.848 66.5013 5.752 66.528 5.656 66.528H4.232C4.136 66.528 4.056 66.496 3.992 66.432C3.928 66.368 3.896 66.2933 3.896 66.208C3.90667 65.7493 4.00267 65.3067 4.184 64.88C4.36533 64.4427 4.62667 64.0587 4.968 63.728C5.32 63.3867 5.74667 63.1147 6.248 62.912C6.74933 62.7093 7.31467 62.608 7.944 62.608C8.82933 62.608 9.56 62.7573 10.136 63.056C10.7227 63.3547 11.16 63.76 11.448 64.272C11.7467 64.784 11.896 65.36 11.896 66C11.896 66.5013 11.8 66.9653 11.608 67.392C11.416 67.808 11.1387 68.2133 10.776 68.608C10.4133 68.992 9.976 69.3867 9.464 69.792L7.192 72.096H11.752C11.8693 72.096 11.96 72.1333 12.024 72.208C12.0987 72.272 12.136 72.3627 12.136 72.48V73.616C12.136 73.7227 12.0987 73.8133 12.024 73.888C11.96 73.9627 11.8693 74 11.752 74H4.104ZM18.1543 74.16C17.3969 74.16 16.7516 74.048 16.2183 73.824C15.6849 73.6 15.2476 73.2907 14.9062 72.896C14.5649 72.5013 14.3089 72.048 14.1383 71.536C13.9676 71.0133 13.8663 70.4587 13.8343 69.872C13.8236 69.584 13.8129 69.2693 13.8023 68.928C13.8023 68.576 13.8023 68.224 13.8023 67.872C13.8129 67.52 13.8236 67.1947 13.8343 66.896C13.8556 66.3093 13.9569 65.76 14.1383 65.248C14.3196 64.7253 14.5809 64.272 14.9223 63.888C15.2743 63.504 15.7169 63.2 16.2503 62.976C16.7836 62.752 17.4183 62.64 18.1543 62.64C18.9009 62.64 19.5409 62.752 20.0743 62.976C20.6076 63.2 21.0449 63.504 21.3863 63.888C21.7383 64.272 21.9996 64.7253 22.1703 65.248C22.3516 65.76 22.4529 66.3093 22.4743 66.896C22.4956 67.1947 22.5063 67.52 22.5063 67.872C22.5063 68.224 22.5063 68.576 22.5063 68.928C22.5063 69.2693 22.4956 69.584 22.4743 69.872C22.4529 70.4587 22.3569 71.0133 22.1863 71.536C22.0156 72.048 21.7596 72.5013 21.4183 72.896C21.0769 73.2907 20.6343 73.6 20.0903 73.824C19.5569 74.048 18.9116 74.16 18.1543 74.16ZM18.1543 72.32C18.8476 72.32 19.3543 72.096 19.6743 71.648C20.0049 71.1893 20.1756 70.5707 20.1863 69.792C20.2076 69.4827 20.2183 69.1733 20.2183 68.864C20.2183 68.544 20.2183 68.224 20.2183 67.904C20.2183 67.584 20.2076 67.28 20.1863 66.992C20.1756 66.2347 20.0049 65.6267 19.6743 65.168C19.3543 64.6987 18.8476 64.464 18.1543 64.464C17.4716 64.464 16.9649 64.6987 16.6343 65.168C16.3143 65.6267 16.1436 66.2347 16.1223 66.992C16.1223 67.28 16.1169 67.584 16.1063 67.904C16.1063 68.224 16.1063 68.544 16.1063 68.864C16.1169 69.1733 16.1223 69.4827 16.1223 69.792C16.1436 70.5707 16.3196 71.1893 16.6503 71.648C16.9809 72.096 17.4823 72.32 18.1543 72.32ZM27.8539 74C27.7365 74 27.6405 73.9627 27.5659 73.888C27.5019 73.8133 27.4699 73.7227 27.4699 73.616V65.328L25.0379 67.2C24.9419 67.264 24.8459 67.2907 24.7499 67.28C24.6539 67.2587 24.5685 67.2 24.4939 67.104L23.8219 66.24C23.7579 66.144 23.7312 66.0427 23.7419 65.936C23.7632 65.8293 23.8219 65.744 23.9179 65.68L27.5019 62.912C27.5659 62.8587 27.6299 62.8267 27.6939 62.816C27.7579 62.8053 27.8272 62.8 27.9019 62.8H29.3099C29.4165 62.8 29.5072 62.8373 29.5819 62.912C29.6565 62.9867 29.6939 63.0773 29.6939 63.184V73.616C29.6939 73.7227 29.6565 73.8133 29.5819 73.888C29.5072 73.9627 29.4165 74 29.3099 74H27.8539ZM35.9321 74.16C35.0148 74.16 34.2255 73.9893 33.5641 73.648C32.9028 73.296 32.3908 72.8267 32.0281 72.24C31.6655 71.6427 31.4841 70.976 31.4841 70.24C31.4841 69.9093 31.5268 69.5893 31.6121 69.28C31.6975 68.9707 31.8095 68.6773 31.9481 68.4C32.0868 68.1227 32.2201 67.8773 32.3481 67.664C32.4868 67.44 32.6095 67.264 32.7161 67.136L35.6441 63.12C35.6868 63.0667 35.7508 63.0027 35.8361 62.928C35.9215 62.8427 36.0388 62.8 36.1881 62.8H37.6761C37.7721 62.8 37.8521 62.8373 37.9161 62.912C37.9801 62.976 38.0121 63.056 38.0121 63.152C38.0121 63.1947 38.0015 63.2373 37.9801 63.28C37.9695 63.312 37.9535 63.3387 37.9321 63.36L35.6921 66.464C35.7881 66.432 35.9001 66.4107 36.0281 66.4C36.1561 66.3893 36.2735 66.384 36.3801 66.384C36.9135 66.3947 37.4201 66.5013 37.9001 66.704C38.3801 66.896 38.8015 67.1627 39.1641 67.504C39.5268 67.8453 39.8095 68.2453 40.0121 68.704C40.2255 69.1627 40.3321 69.664 40.3321 70.208C40.3321 70.912 40.1561 71.568 39.8041 72.176C39.4521 72.7733 38.9455 73.2533 38.2841 73.616C37.6335 73.9787 36.8495 74.16 35.9321 74.16ZM35.9161 72.32C36.3001 72.32 36.6521 72.24 36.9721 72.08C37.3028 71.92 37.5695 71.6853 37.7721 71.376C37.9748 71.0667 38.0761 70.6827 38.0761 70.224C38.0761 69.776 37.9748 69.3973 37.7721 69.088C37.5695 68.7787 37.3028 68.544 36.9721 68.384C36.6521 68.224 36.3001 68.144 35.9161 68.144C35.5321 68.144 35.1748 68.224 34.8441 68.384C34.5241 68.544 34.2628 68.7787 34.0601 69.088C33.8575 69.3973 33.7561 69.776 33.7561 70.224C33.7561 70.6827 33.8575 71.0667 34.0601 71.376C34.2628 71.6853 34.5241 71.92 34.8441 72.08C35.1748 72.24 35.5321 72.32 35.9161 72.32Z" fill="white"/>
<path opacity="0.6" d="M59.632 104C59.5253 104 59.4347 103.963 59.36 103.888C59.2853 103.813 59.248 103.723 59.248 103.616V93.2C59.248 93.0827 59.2853 92.9867 59.36 92.912C59.4347 92.8373 59.5253 92.8 59.632 92.8H66.576C66.6933 92.8 66.7893 92.8373 66.864 92.912C66.9387 92.9867 66.976 93.0827 66.976 93.2V94.32C66.976 94.4373 66.9387 94.5333 66.864 94.608C66.7893 94.672 66.6933 94.704 66.576 94.704H61.44V97.744H66.256C66.3733 97.744 66.4693 97.7813 66.544 97.856C66.6187 97.9307 66.656 98.0267 66.656 98.144V99.264C66.656 99.3707 66.6187 99.4613 66.544 99.536C66.4693 99.6107 66.3733 99.648 66.256 99.648H61.44V103.616C61.44 103.723 61.4027 103.813 61.328 103.888C61.2533 103.963 61.1573 104 61.04 104H59.632ZM69.19 104C69.0833 104 68.9927 103.963 68.918 103.888C68.8433 103.813 68.806 103.723 68.806 103.616V96.064C68.806 95.9573 68.8433 95.8667 68.918 95.792C68.9927 95.7173 69.0833 95.68 69.19 95.68H70.518C70.6353 95.68 70.726 95.7173 70.79 95.792C70.8647 95.8667 70.902 95.9573 70.902 96.064V103.616C70.902 103.723 70.8647 103.813 70.79 103.888C70.726 103.963 70.6353 104 70.518 104H69.19ZM69.126 94.304C69.0087 94.304 68.9127 94.272 68.838 94.208C68.774 94.1333 68.742 94.0373 68.742 93.92V92.768C68.742 92.6613 68.774 92.5707 68.838 92.496C68.9127 92.4213 69.0087 92.384 69.126 92.384H70.582C70.6993 92.384 70.7953 92.4213 70.87 92.496C70.9447 92.5707 70.982 92.6613 70.982 92.768V93.92C70.982 94.0373 70.9447 94.1333 70.87 94.208C70.7953 94.272 70.6993 94.304 70.582 94.304H69.126ZM73.7369 104C73.6302 104 73.5395 103.963 73.4649 103.888C73.3902 103.813 73.3529 103.723 73.3529 103.616V96.064C73.3529 95.9573 73.3902 95.8667 73.4649 95.792C73.5395 95.7173 73.6302 95.68 73.7369 95.68H75.0489C75.1555 95.68 75.2462 95.7173 75.3209 95.792C75.3955 95.8667 75.4329 95.9573 75.4329 96.064V96.72C75.7102 96.3787 76.0622 96.096 76.4889 95.872C76.9262 95.6373 77.4649 95.52 78.1049 95.52C78.7555 95.52 79.3209 95.6693 79.8009 95.968C80.2809 96.256 80.6489 96.6667 80.9049 97.2C81.1715 97.7333 81.3049 98.3733 81.3049 99.12V103.616C81.3049 103.723 81.2675 103.813 81.1929 103.888C81.1182 103.963 81.0275 104 80.9209 104H79.5129C79.4062 104 79.3155 103.963 79.2409 103.888C79.1662 103.813 79.1289 103.723 79.1289 103.616V99.216C79.1289 98.5973 78.9742 98.112 78.6649 97.76C78.3662 97.408 77.9289 97.232 77.3529 97.232C76.7982 97.232 76.3555 97.408 76.0249 97.76C75.6942 98.112 75.5289 98.5973 75.5289 99.216V103.616C75.5289 103.723 75.4915 103.813 75.4169 103.888C75.3422 103.963 75.2515 104 75.1449 104H73.7369ZM83.7213 104C83.6146 104 83.5239 103.963 83.4493 103.888C83.3746 103.813 83.3372 103.723 83.3372 103.616V96.064C83.3372 95.9573 83.3746 95.8667 83.4493 95.792C83.5239 95.7173 83.6146 95.68 83.7213 95.68H85.0493C85.1666 95.68 85.2573 95.7173 85.3213 95.792C85.3959 95.8667 85.4333 95.9573 85.4333 96.064V103.616C85.4333 103.723 85.3959 103.813 85.3213 103.888C85.2573 103.963 85.1666 104 85.0493 104H83.7213ZM83.6573 94.304C83.5399 94.304 83.4439 94.272 83.3693 94.208C83.3053 94.1333 83.2733 94.0373 83.2733 93.92V92.768C83.2733 92.6613 83.3053 92.5707 83.3693 92.496C83.4439 92.4213 83.5399 92.384 83.6573 92.384H85.1133C85.2306 92.384 85.3266 92.4213 85.4013 92.496C85.4759 92.5707 85.5133 92.6613 85.5133 92.768V93.92C85.5133 94.0373 85.4759 94.1333 85.4013 94.208C85.3266 94.272 85.2306 94.304 85.1133 94.304H83.6573ZM90.8955 104.16C90.2555 104.16 89.7062 104.085 89.2475 103.936C88.7995 103.787 88.4315 103.6 88.1435 103.376C87.8555 103.152 87.6422 102.928 87.5035 102.704C87.3648 102.48 87.2902 102.293 87.2795 102.144C87.2688 102.027 87.3008 101.936 87.3755 101.872C87.4608 101.797 87.5515 101.76 87.6475 101.76H88.9115C88.9542 101.76 88.9915 101.765 89.0235 101.776C89.0555 101.787 89.0982 101.819 89.1515 101.872C89.2902 101.989 89.4342 102.112 89.5835 102.24C89.7435 102.368 89.9302 102.48 90.1435 102.576C90.3568 102.661 90.6235 102.704 90.9435 102.704C91.3595 102.704 91.7062 102.624 91.9835 102.464C92.2715 102.293 92.4155 102.053 92.4155 101.744C92.4155 101.52 92.3515 101.339 92.2235 101.2C92.1062 101.061 91.8822 100.939 91.5515 100.832C91.2208 100.715 90.7515 100.592 90.1435 100.464C89.5462 100.325 89.0502 100.149 88.6555 99.936C88.2608 99.7227 87.9675 99.456 87.7755 99.136C87.5835 98.816 87.4875 98.4427 87.4875 98.016C87.4875 97.6 87.6102 97.2053 87.8555 96.832C88.1115 96.448 88.4848 96.1333 88.9755 95.888C89.4768 95.6427 90.0955 95.52 90.8315 95.52C91.4075 95.52 91.9088 95.5947 92.3355 95.744C92.7622 95.8827 93.1142 96.0587 93.3915 96.272C93.6795 96.4853 93.8982 96.704 94.0475 96.928C94.1968 97.1413 94.2768 97.328 94.2875 97.488C94.2982 97.6053 94.2662 97.7013 94.1915 97.776C94.1168 97.84 94.0315 97.872 93.9355 97.872H92.7515C92.6982 97.872 92.6502 97.8613 92.6075 97.84C92.5648 97.8187 92.5222 97.792 92.4795 97.76C92.3622 97.6533 92.2342 97.5413 92.0955 97.424C91.9568 97.3067 91.7862 97.2053 91.5835 97.12C91.3915 97.024 91.1355 96.976 90.8155 96.976C90.4102 96.976 90.1008 97.0667 89.8875 97.248C89.6742 97.4187 89.5675 97.6373 89.5675 97.904C89.5675 98.0853 89.6155 98.2453 89.7115 98.384C89.8182 98.512 90.0262 98.6347 90.3355 98.752C90.6448 98.8693 91.1142 98.992 91.7435 99.12C92.4582 99.248 93.0235 99.44 93.4395 99.696C93.8662 99.9413 94.1648 100.229 94.3355 100.56C94.5168 100.88 94.6075 101.237 94.6075 101.632C94.6075 102.112 94.4635 102.544 94.1755 102.928C93.8982 103.312 93.4822 103.616 92.9275 103.84C92.3835 104.053 91.7062 104.16 90.8955 104.16ZM96.6591 104C96.5525 104 96.4618 103.963 96.3871 103.888C96.3125 103.813 96.2751 103.723 96.2751 103.616V93.024C96.2751 92.9173 96.3125 92.8267 96.3871 92.752C96.4618 92.6773 96.5525 92.64 96.6591 92.64H98.0831C98.2005 92.64 98.2911 92.6773 98.3551 92.752C98.4298 92.8267 98.4671 92.9173 98.4671 93.024V96.672C98.7551 96.3307 99.1071 96.0533 99.5231 95.84C99.9391 95.6267 100.451 95.52 101.059 95.52C101.71 95.52 102.275 95.6693 102.755 95.968C103.246 96.256 103.624 96.6667 103.891 97.2C104.158 97.7333 104.291 98.3733 104.291 99.12V103.616C104.291 103.723 104.254 103.813 104.179 103.888C104.104 103.963 104.014 104 103.907 104H102.467C102.36 104 102.27 103.963 102.195 103.888C102.12 103.813 102.083 103.723 102.083 103.616V99.216C102.083 98.5973 101.928 98.112 101.619 97.76C101.32 97.408 100.883 97.232 100.307 97.232C99.7525 97.232 99.3045 97.408 98.9631 97.76C98.6325 98.112 98.4671 98.5973 98.4671 99.216V103.616C98.4671 103.723 98.4298 103.813 98.3551 103.888C98.2911 103.963 98.2005 104 98.0831 104H96.6591ZM109.906 104.16C108.722 104.16 107.783 103.819 107.09 103.136C106.396 102.453 106.023 101.483 105.97 100.224C105.959 100.117 105.954 99.984 105.954 99.824C105.954 99.6533 105.959 99.52 105.97 99.424C106.012 98.624 106.194 97.9307 106.514 97.344C106.844 96.7573 107.298 96.3093 107.874 96C108.45 95.68 109.127 95.52 109.906 95.52C110.77 95.52 111.495 95.7013 112.082 96.064C112.668 96.416 113.111 96.912 113.41 97.552C113.708 98.1813 113.858 98.912 113.858 99.744V100.08C113.858 100.187 113.82 100.277 113.746 100.352C113.671 100.427 113.575 100.464 113.458 100.464H108.146C108.146 100.464 108.146 100.48 108.146 100.512C108.146 100.544 108.146 100.571 108.146 100.592C108.156 100.965 108.226 101.312 108.354 101.632C108.492 101.941 108.69 102.192 108.946 102.384C109.212 102.576 109.527 102.672 109.89 102.672C110.188 102.672 110.439 102.629 110.642 102.544C110.844 102.448 111.01 102.341 111.138 102.224C111.266 102.107 111.356 102.011 111.41 101.936C111.506 101.808 111.58 101.733 111.634 101.712C111.698 101.68 111.788 101.664 111.906 101.664H113.282C113.388 101.664 113.474 101.696 113.538 101.76C113.612 101.824 113.644 101.904 113.634 102C113.623 102.171 113.532 102.379 113.362 102.624C113.202 102.869 112.967 103.109 112.658 103.344C112.348 103.579 111.959 103.776 111.49 103.936C111.031 104.085 110.503 104.16 109.906 104.16ZM108.146 99.12H111.682V99.072C111.682 98.656 111.612 98.2933 111.474 97.984C111.335 97.6747 111.132 97.4293 110.866 97.248C110.599 97.0667 110.279 96.976 109.906 96.976C109.532 96.976 109.212 97.0667 108.946 97.248C108.679 97.4293 108.476 97.6747 108.338 97.984C108.21 98.2933 108.146 98.656 108.146 99.072V99.12ZM118.644 104.16C118.089 104.16 117.599 104.069 117.172 103.888C116.756 103.696 116.409 103.429 116.132 103.088C115.855 102.747 115.641 102.347 115.492 101.888C115.343 101.419 115.257 100.907 115.236 100.352C115.225 100.16 115.22 99.9893 115.22 99.84C115.22 99.68 115.225 99.504 115.236 99.312C115.257 98.7787 115.337 98.2827 115.476 97.824C115.625 97.3653 115.839 96.9653 116.116 96.624C116.404 96.272 116.756 96 117.172 95.808C117.599 95.616 118.089 95.52 118.644 95.52C119.22 95.52 119.705 95.6213 120.1 95.824C120.505 96.016 120.841 96.2667 121.108 96.576V93.024C121.108 92.9173 121.14 92.8267 121.204 92.752C121.279 92.6773 121.375 92.64 121.492 92.64H122.852C122.959 92.64 123.049 92.6773 123.124 92.752C123.199 92.8267 123.236 92.9173 123.236 93.024V103.616C123.236 103.723 123.199 103.813 123.124 103.888C123.049 103.963 122.959 104 122.852 104H121.588C121.471 104 121.375 103.963 121.3 103.888C121.236 103.813 121.204 103.723 121.204 103.616V103.024C120.937 103.355 120.596 103.627 120.18 103.84C119.775 104.053 119.263 104.16 118.644 104.16ZM119.236 102.448C119.684 102.448 120.041 102.347 120.308 102.144C120.575 101.941 120.772 101.685 120.9 101.376C121.028 101.056 121.097 100.731 121.108 100.4C121.119 100.208 121.124 100.005 121.124 99.792C121.124 99.568 121.119 99.36 121.108 99.168C121.097 98.848 121.023 98.544 120.884 98.256C120.745 97.9573 120.543 97.712 120.276 97.52C120.009 97.328 119.663 97.232 119.236 97.232C118.788 97.232 118.431 97.3333 118.164 97.536C117.908 97.728 117.721 97.984 117.604 98.304C117.487 98.624 117.417 98.976 117.396 99.36C117.385 99.68 117.385 100 117.396 100.32C117.417 100.704 117.487 101.056 117.604 101.376C117.721 101.696 117.908 101.957 118.164 102.16C118.431 102.352 118.788 102.448 119.236 102.448ZM129.601 104C129.494 104 129.403 103.968 129.329 103.904C129.254 103.829 129.217 103.733 129.217 103.616V93.2C129.217 93.0827 129.254 92.9867 129.329 92.912C129.403 92.8373 129.494 92.8 129.601 92.8H131.057C131.174 92.8 131.265 92.8373 131.329 92.912C131.403 92.9867 131.441 93.0827 131.441 93.2V97.328H136.161V93.2C136.161 93.0827 136.198 92.9867 136.273 92.912C136.347 92.8373 136.438 92.8 136.545 92.8H137.985C138.102 92.8 138.198 92.8373 138.273 92.912C138.347 92.9867 138.385 93.0827 138.385 93.2V103.616C138.385 103.723 138.347 103.813 138.273 103.888C138.198 103.963 138.102 104 137.985 104H136.545C136.438 104 136.347 103.963 136.273 103.888C136.198 103.813 136.161 103.723 136.161 103.616V99.328H131.441V103.616C131.441 103.723 131.403 103.813 131.329 103.888C131.265 103.963 131.174 104 131.057 104H129.601ZM141.065 104C140.958 104 140.868 103.963 140.793 103.888C140.718 103.813 140.681 103.723 140.681 103.616V96.064C140.681 95.9573 140.718 95.8667 140.793 95.792C140.868 95.7173 140.958 95.68 141.065 95.68H142.393C142.51 95.68 142.601 95.7173 142.665 95.792C142.74 95.8667 142.777 95.9573 142.777 96.064V103.616C142.777 103.723 142.74 103.813 142.665 103.888C142.601 103.963 142.51 104 142.393 104H141.065ZM141.001 94.304C140.884 94.304 140.788 94.272 140.713 94.208C140.649 94.1333 140.617 94.0373 140.617 93.92V92.768C140.617 92.6613 140.649 92.5707 140.713 92.496C140.788 92.4213 140.884 92.384 141.001 92.384H142.457C142.574 92.384 142.67 92.4213 142.745 92.496C142.82 92.5707 142.857 92.6613 142.857 92.768V93.92C142.857 94.0373 142.82 94.1333 142.745 94.208C142.67 94.272 142.574 94.304 142.457 94.304H141.001ZM148.66 107.52C147.881 107.52 147.241 107.419 146.74 107.216C146.238 107.013 145.844 106.768 145.556 106.48C145.268 106.192 145.06 105.904 144.932 105.616C144.814 105.339 144.75 105.12 144.74 104.96C144.729 104.853 144.761 104.757 144.836 104.672C144.921 104.597 145.017 104.56 145.124 104.56H146.516C146.622 104.56 146.708 104.581 146.772 104.624C146.836 104.677 146.889 104.768 146.932 104.896C146.996 105.035 147.081 105.184 147.188 105.344C147.294 105.504 147.454 105.637 147.668 105.744C147.892 105.861 148.196 105.92 148.58 105.92C148.985 105.92 149.326 105.861 149.604 105.744C149.881 105.627 150.089 105.429 150.228 105.152C150.377 104.875 150.452 104.491 150.452 104V102.912C150.196 103.221 149.865 103.472 149.46 103.664C149.065 103.856 148.574 103.952 147.988 103.952C147.412 103.952 146.916 103.861 146.5 103.68C146.084 103.488 145.737 103.227 145.46 102.896C145.182 102.555 144.969 102.155 144.82 101.696C144.681 101.237 144.601 100.731 144.58 100.176C144.569 99.888 144.569 99.6 144.58 99.312C144.601 98.7787 144.681 98.2827 144.82 97.824C144.958 97.3653 145.166 96.9653 145.444 96.624C145.732 96.272 146.084 96 146.5 95.808C146.916 95.616 147.412 95.52 147.988 95.52C148.596 95.52 149.108 95.6373 149.524 95.872C149.94 96.096 150.281 96.3787 150.548 96.72V96.08C150.548 95.9627 150.585 95.8667 150.66 95.792C150.734 95.7173 150.825 95.68 150.932 95.68H152.228C152.334 95.68 152.425 95.7173 152.5 95.792C152.574 95.8667 152.612 95.9627 152.612 96.08L152.628 103.792C152.628 104.56 152.484 105.221 152.196 105.776C151.908 106.331 151.47 106.757 150.884 107.056C150.308 107.365 149.566 107.52 148.66 107.52ZM148.58 102.256C149.017 102.256 149.369 102.16 149.636 101.968C149.902 101.776 150.1 101.525 150.228 101.216C150.356 100.907 150.43 100.592 150.452 100.272C150.462 100.133 150.468 99.9573 150.468 99.744C150.468 99.5307 150.462 99.36 150.452 99.232C150.43 98.9013 150.356 98.5867 150.228 98.288C150.1 97.9787 149.902 97.728 149.636 97.536C149.369 97.3333 149.017 97.232 148.58 97.232C148.142 97.232 147.79 97.3333 147.524 97.536C147.257 97.728 147.065 97.984 146.948 98.304C146.841 98.624 146.777 98.976 146.756 99.36C146.734 99.616 146.734 99.8773 146.756 100.144C146.777 100.517 146.841 100.869 146.948 101.2C147.065 101.52 147.257 101.776 147.524 101.968C147.79 102.16 148.142 102.256 148.58 102.256ZM155.159 104C155.052 104 154.962 103.963 154.887 103.888C154.812 103.813 154.775 103.723 154.775 103.616V93.024C154.775 92.9173 154.812 92.8267 154.887 92.752C154.962 92.6773 155.052 92.64 155.159 92.64H156.583C156.7 92.64 156.791 92.6773 156.855 92.752C156.93 92.8267 156.967 92.9173 156.967 93.024V96.672C157.255 96.3307 157.607 96.0533 158.023 95.84C158.439 95.6267 158.951 95.52 159.559 95.52C160.21 95.52 160.775 95.6693 161.255 95.968C161.746 96.256 162.124 96.6667 162.391 97.2C162.658 97.7333 162.791 98.3733 162.791 99.12V103.616C162.791 103.723 162.754 103.813 162.679 103.888C162.604 103.963 162.514 104 162.407 104H160.967C160.86 104 160.77 103.963 160.695 103.888C160.62 103.813 160.583 103.723 160.583 103.616V99.216C160.583 98.5973 160.428 98.112 160.119 97.76C159.82 97.408 159.383 97.232 158.807 97.232C158.252 97.232 157.804 97.408 157.463 97.76C157.132 98.112 156.967 98.5973 156.967 99.216V103.616C156.967 103.723 156.93 103.813 156.855 103.888C156.791 103.963 156.7 104 156.583 104H155.159ZM167.974 104.16C167.334 104.16 166.784 104.085 166.326 103.936C165.878 103.787 165.51 103.6 165.222 103.376C164.934 103.152 164.72 102.928 164.582 102.704C164.443 102.48 164.368 102.293 164.358 102.144C164.347 102.027 164.379 101.936 164.454 101.872C164.539 101.797 164.63 101.76 164.726 101.76H165.99C166.032 101.76 166.07 101.765 166.102 101.776C166.134 101.787 166.176 101.819 166.23 101.872C166.368 101.989 166.512 102.112 166.662 102.24C166.822 102.368 167.008 102.48 167.222 102.576C167.435 102.661 167.702 102.704 168.022 102.704C168.438 102.704 168.784 102.624 169.062 102.464C169.35 102.293 169.494 102.053 169.494 101.744C169.494 101.52 169.43 101.339 169.302 101.2C169.184 101.061 168.96 100.939 168.63 100.832C168.299 100.715 167.83 100.592 167.222 100.464C166.624 100.325 166.128 100.149 165.734 99.936C165.339 99.7227 165.046 99.456 164.854 99.136C164.662 98.816 164.566 98.4427 164.566 98.016C164.566 97.6 164.688 97.2053 164.934 96.832C165.19 96.448 165.563 96.1333 166.054 95.888C166.555 95.6427 167.174 95.52 167.91 95.52C168.486 95.52 168.987 95.5947 169.414 95.744C169.84 95.8827 170.192 96.0587 170.47 96.272C170.758 96.4853 170.976 96.704 171.126 96.928C171.275 97.1413 171.355 97.328 171.366 97.488C171.376 97.6053 171.344 97.7013 171.27 97.776C171.195 97.84 171.11 97.872 171.014 97.872H169.83C169.776 97.872 169.728 97.8613 169.686 97.84C169.643 97.8187 169.6 97.792 169.558 97.76C169.44 97.6533 169.312 97.5413 169.174 97.424C169.035 97.3067 168.864 97.2053 168.662 97.12C168.47 97.024 168.214 96.976 167.894 96.976C167.488 96.976 167.179 97.0667 166.966 97.248C166.752 97.4187 166.646 97.6373 166.646 97.904C166.646 98.0853 166.694 98.2453 166.79 98.384C166.896 98.512 167.104 98.6347 167.414 98.752C167.723 98.8693 168.192 98.992 168.822 99.12C169.536 99.248 170.102 99.44 170.518 99.696C170.944 99.9413 171.243 100.229 171.414 100.56C171.595 100.88 171.686 101.237 171.686 101.632C171.686 102.112 171.542 102.544 171.254 102.928C170.976 103.312 170.56 103.616 170.006 103.84C169.462 104.053 168.784 104.16 167.974 104.16ZM176.937 104.16C176.169 104.16 175.492 104.016 174.905 103.728C174.329 103.44 173.876 103.024 173.545 102.48C173.225 101.925 173.049 101.259 173.017 100.48C173.007 100.32 173.001 100.112 173.001 99.856C173.001 99.5893 173.007 99.3707 173.017 99.2C173.049 98.4213 173.225 97.76 173.545 97.216C173.876 96.6613 174.329 96.24 174.905 95.952C175.492 95.664 176.169 95.52 176.937 95.52C177.62 95.52 178.201 95.616 178.681 95.808C179.161 96 179.556 96.24 179.865 96.528C180.175 96.816 180.404 97.12 180.553 97.44C180.713 97.7493 180.799 98.032 180.809 98.288C180.82 98.4053 180.783 98.5013 180.697 98.576C180.623 98.64 180.532 98.672 180.425 98.672H179.017C178.911 98.672 178.825 98.6453 178.761 98.592C178.708 98.5387 178.655 98.4587 178.601 98.352C178.441 97.9253 178.228 97.6267 177.961 97.456C177.705 97.2747 177.375 97.184 176.969 97.184C176.436 97.184 176.009 97.3547 175.689 97.696C175.38 98.0267 175.215 98.5547 175.193 99.28C175.172 99.6853 175.172 100.059 175.193 100.4C175.215 101.136 175.38 101.669 175.689 102C176.009 102.331 176.436 102.496 176.969 102.496C177.385 102.496 177.721 102.411 177.977 102.24C178.233 102.059 178.441 101.755 178.601 101.328C178.655 101.221 178.708 101.141 178.761 101.088C178.825 101.035 178.911 101.008 179.017 101.008H180.425C180.532 101.008 180.623 101.045 180.697 101.12C180.783 101.184 180.82 101.275 180.809 101.392C180.799 101.584 180.745 101.803 180.649 102.048C180.564 102.283 180.42 102.528 180.217 102.784C180.025 103.029 179.78 103.259 179.481 103.472C179.183 103.675 178.82 103.84 178.393 103.968C177.977 104.096 177.492 104.16 176.937 104.16ZM182.878 104C182.771 104 182.681 103.963 182.606 103.888C182.531 103.813 182.494 103.723 182.494 103.616V93.024C182.494 92.9173 182.531 92.8267 182.606 92.752C182.681 92.6773 182.771 92.64 182.878 92.64H184.302C184.419 92.64 184.51 92.6773 184.574 92.752C184.649 92.8267 184.686 92.9173 184.686 93.024V96.672C184.974 96.3307 185.326 96.0533 185.742 95.84C186.158 95.6267 186.67 95.52 187.278 95.52C187.929 95.52 188.494 95.6693 188.974 95.968C189.465 96.256 189.843 96.6667 190.11 97.2C190.377 97.7333 190.51 98.3733 190.51 99.12V103.616C190.51 103.723 190.473 103.813 190.398 103.888C190.323 103.963 190.233 104 190.126 104H188.686C188.579 104 188.489 103.963 188.414 103.888C188.339 103.813 188.302 103.723 188.302 103.616V99.216C188.302 98.5973 188.147 98.112 187.838 97.76C187.539 97.408 187.102 97.232 186.526 97.232C185.971 97.232 185.523 97.408 185.182 97.76C184.851 98.112 184.686 98.5973 184.686 99.216V103.616C184.686 103.723 184.649 103.813 184.574 103.888C184.51 103.963 184.419 104 184.302 104H182.878ZM196.22 104.16C195.367 104.16 194.647 104.011 194.06 103.712C193.484 103.413 193.042 102.992 192.732 102.448C192.434 101.904 192.263 101.269 192.22 100.544C192.21 100.352 192.204 100.117 192.204 99.84C192.204 99.5627 192.21 99.328 192.22 99.136C192.263 98.4 192.439 97.7653 192.748 97.232C193.068 96.688 193.516 96.2667 194.092 95.968C194.679 95.6693 195.388 95.52 196.22 95.52C197.052 95.52 197.756 95.6693 198.332 95.968C198.919 96.2667 199.367 96.688 199.676 97.232C199.996 97.7653 200.178 98.4 200.22 99.136C200.231 99.328 200.236 99.5627 200.236 99.84C200.236 100.117 200.231 100.352 200.22 100.544C200.178 101.269 200.002 101.904 199.692 102.448C199.394 102.992 198.951 103.413 198.364 103.712C197.788 104.011 197.074 104.16 196.22 104.16ZM196.22 102.576C196.786 102.576 197.223 102.4 197.532 102.048C197.842 101.685 198.012 101.157 198.044 100.464C198.055 100.304 198.06 100.096 198.06 99.84C198.06 99.584 198.055 99.376 198.044 99.216C198.012 98.5333 197.842 98.0107 197.532 97.648C197.223 97.2853 196.786 97.104 196.22 97.104C195.655 97.104 195.218 97.2853 194.908 97.648C194.599 98.0107 194.428 98.5333 194.396 99.216C194.386 99.376 194.38 99.584 194.38 99.84C194.38 100.096 194.386 100.304 194.396 100.464C194.428 101.157 194.599 101.685 194.908 102.048C195.218 102.4 195.655 102.576 196.22 102.576ZM205.689 104.16C204.836 104.16 204.116 104.011 203.529 103.712C202.953 103.413 202.51 102.992 202.201 102.448C201.902 101.904 201.732 101.269 201.689 100.544C201.678 100.352 201.673 100.117 201.673 99.84C201.673 99.5627 201.678 99.328 201.689 99.136C201.732 98.4 201.908 97.7653 202.217 97.232C202.537 96.688 202.985 96.2667 203.561 95.968C204.148 95.6693 204.857 95.52 205.689 95.52C206.521 95.52 207.225 95.6693 207.801 95.968C208.388 96.2667 208.836 96.688 209.145 97.232C209.465 97.7653 209.646 98.4 209.689 99.136C209.7 99.328 209.705 99.5627 209.705 99.84C209.705 100.117 209.7 100.352 209.689 100.544C209.646 101.269 209.47 101.904 209.161 102.448C208.862 102.992 208.42 103.413 207.833 103.712C207.257 104.011 206.542 104.16 205.689 104.16ZM205.689 102.576C206.254 102.576 206.692 102.4 207.001 102.048C207.31 101.685 207.481 101.157 207.513 100.464C207.524 100.304 207.529 100.096 207.529 99.84C207.529 99.584 207.524 99.376 207.513 99.216C207.481 98.5333 207.31 98.0107 207.001 97.648C206.692 97.2853 206.254 97.104 205.689 97.104C205.124 97.104 204.686 97.2853 204.377 97.648C204.068 98.0107 203.897 98.5333 203.865 99.216C203.854 99.376 203.849 99.584 203.849 99.84C203.849 100.096 203.854 100.304 203.865 100.464C203.897 101.157 204.068 101.685 204.377 102.048C204.686 102.4 205.124 102.576 205.689 102.576ZM211.878 104C211.771 104 211.681 103.963 211.606 103.888C211.531 103.813 211.494 103.723 211.494 103.616V93.024C211.494 92.9173 211.531 92.8267 211.606 92.752C211.681 92.6773 211.771 92.64 211.878 92.64H213.206C213.313 92.64 213.403 92.6773 213.478 92.752C213.553 92.8267 213.59 92.9173 213.59 93.024V103.616C213.59 103.723 213.553 103.813 213.478 103.888C213.403 103.963 213.313 104 213.206 104H211.878Z" fill="white"/>
<path opacity="0.6" d="M51 9L51 99" stroke="white" stroke-opacity="0.6" stroke-linecap="round"/>
<circle opacity="0.6" cx="51" cy="9" r="3" fill="#D9D9D9"/>
<circle opacity="0.6" cx="51" cy="38" r="3" fill="#D9D9D9"/>
<circle opacity="0.6" cx="51" cy="68" r="3" fill="#D9D9D9"/>
<circle opacity="0.6" cx="51" cy="99" r="3" fill="#D9D9D9"/>
<path opacity="0.6" d="M1.104 15C0.997333 15 0.906667 14.9627 0.832 14.888C0.757333 14.8133 0.72 14.7227 0.72 14.616V13.8C0.72 13.704 0.741333 13.592 0.784 13.464C0.837333 13.3253 0.949333 13.1867 1.12 13.048L3.648 10.536C4.352 9.98133 4.91733 9.512 5.344 9.128C5.78133 8.73333 6.096 8.376 6.288 8.056C6.49067 7.72533 6.592 7.4 6.592 7.08C6.592 6.6 6.45867 6.21067 6.192 5.912C5.936 5.61333 5.52533 5.464 4.96 5.464C4.58667 5.464 4.272 5.544 4.016 5.704C3.76 5.85333 3.55733 6.056 3.408 6.312C3.26933 6.568 3.17333 6.85067 3.12 7.16C3.09867 7.29867 3.04 7.39467 2.944 7.448C2.848 7.50133 2.752 7.528 2.656 7.528H1.232C1.136 7.528 1.056 7.496 0.992 7.432C0.928 7.368 0.896 7.29333 0.896 7.208C0.906667 6.74933 1.00267 6.30667 1.184 5.88C1.36533 5.44267 1.62667 5.05867 1.968 4.728C2.32 4.38667 2.74667 4.11467 3.248 3.912C3.74933 3.70933 4.31467 3.608 4.944 3.608C5.82933 3.608 6.56 3.75733 7.136 4.056C7.72267 4.35467 8.16 4.76 8.448 5.272C8.74667 5.784 8.896 6.36 8.896 7C8.896 7.50133 8.8 7.96533 8.608 8.392C8.416 8.808 8.13867 9.21333 7.776 9.608C7.41333 9.992 6.976 10.3867 6.464 10.792L4.192 13.096H8.752C8.86933 13.096 8.96 13.1333 9.024 13.208C9.09867 13.272 9.136 13.3627 9.136 13.48V14.616C9.136 14.7227 9.09867 14.8133 9.024 14.888C8.96 14.9627 8.86933 15 8.752 15H1.104ZM15.1543 15.16C14.3969 15.16 13.7516 15.048 13.2183 14.824C12.6849 14.6 12.2476 14.2907 11.9062 13.896C11.5649 13.5013 11.3089 13.048 11.1383 12.536C10.9676 12.0133 10.8663 11.4587 10.8343 10.872C10.8236 10.584 10.8129 10.2693 10.8023 9.928C10.8023 9.576 10.8023 9.224 10.8023 8.872C10.8129 8.52 10.8236 8.19467 10.8343 7.896C10.8556 7.30933 10.9569 6.76 11.1383 6.248C11.3196 5.72533 11.5809 5.272 11.9223 4.888C12.2743 4.504 12.7169 4.2 13.2503 3.976C13.7836 3.752 14.4183 3.64 15.1543 3.64C15.9009 3.64 16.5409 3.752 17.0743 3.976C17.6076 4.2 18.0449 4.504 18.3863 4.888C18.7383 5.272 18.9996 5.72533 19.1703 6.248C19.3516 6.76 19.4529 7.30933 19.4743 7.896C19.4956 8.19467 19.5063 8.52 19.5063 8.872C19.5063 9.224 19.5063 9.576 19.5063 9.928C19.5063 10.2693 19.4956 10.584 19.4743 10.872C19.4529 11.4587 19.3569 12.0133 19.1863 12.536C19.0156 13.048 18.7596 13.5013 18.4183 13.896C18.0769 14.2907 17.6343 14.6 17.0903 14.824C16.5569 15.048 15.9116 15.16 15.1543 15.16ZM15.1543 13.32C15.8476 13.32 16.3543 13.096 16.6743 12.648C17.0049 12.1893 17.1756 11.5707 17.1863 10.792C17.2076 10.4827 17.2183 10.1733 17.2183 9.864C17.2183 9.544 17.2183 9.224 17.2183 8.904C17.2183 8.584 17.2076 8.28 17.1863 7.992C17.1756 7.23467 17.0049 6.62667 16.6743 6.168C16.3543 5.69867 15.8476 5.464 15.1543 5.464C14.4716 5.464 13.9649 5.69867 13.6343 6.168C13.3143 6.62667 13.1436 7.23467 13.1223 7.992C13.1223 8.28 13.1169 8.584 13.1063 8.904C13.1063 9.224 13.1063 9.544 13.1063 9.864C13.1169 10.1733 13.1223 10.4827 13.1223 10.792C13.1436 11.5707 13.3196 12.1893 13.6503 12.648C13.9809 13.096 14.4823 13.32 15.1543 13.32ZM25.6699 15.16C24.9125 15.16 24.2672 15.048 23.7339 14.824C23.2005 14.6 22.7632 14.2907 22.4219 13.896C22.0805 13.5013 21.8245 13.048 21.6539 12.536C21.4832 12.0133 21.3819 11.4587 21.3499 10.872C21.3392 10.584 21.3285 10.2693 21.3179 9.928C21.3179 9.576 21.3179 9.224 21.3179 8.872C21.3285 8.52 21.3392 8.19467 21.3499 7.896C21.3712 7.30933 21.4725 6.76 21.6539 6.248C21.8352 5.72533 22.0965 5.272 22.4379 4.888C22.7899 4.504 23.2325 4.2 23.7659 3.976C24.2992 3.752 24.9339 3.64 25.6699 3.64C26.4165 3.64 27.0565 3.752 27.5899 3.976C28.1232 4.2 28.5605 4.504 28.9019 4.888C29.2539 5.272 29.5152 5.72533 29.6859 6.248C29.8672 6.76 29.9685 7.30933 29.9899 7.896C30.0112 8.19467 30.0219 8.52 30.0219 8.872C30.0219 9.224 30.0219 9.576 30.0219 9.928C30.0219 10.2693 30.0112 10.584 29.9899 10.872C29.9685 11.4587 29.8725 12.0133 29.7019 12.536C29.5312 13.048 29.2752 13.5013 28.9339 13.896C28.5925 14.2907 28.1499 14.6 27.6059 14.824C27.0725 15.048 26.4272 15.16 25.6699 15.16ZM25.6699 13.32C26.3632 13.32 26.8699 13.096 27.1899 12.648C27.5205 12.1893 27.6912 11.5707 27.7019 10.792C27.7232 10.4827 27.7339 10.1733 27.7339 9.864C27.7339 9.544 27.7339 9.224 27.7339 8.904C27.7339 8.584 27.7232 8.28 27.7019 7.992C27.6912 7.23467 27.5205 6.62667 27.1899 6.168C26.8699 5.69867 26.3632 5.464 25.6699 5.464C24.9872 5.464 24.4805 5.69867 24.1499 6.168C23.8299 6.62667 23.6592 7.23467 23.6379 7.992C23.6379 8.28 23.6325 8.584 23.6219 8.904C23.6219 9.224 23.6219 9.544 23.6219 9.864C23.6325 10.1733 23.6379 10.4827 23.6379 10.792C23.6592 11.5707 23.8352 12.1893 24.1659 12.648C24.4965 13.096 24.9979 13.32 25.6699 13.32ZM36.0415 15.16C35.1242 15.16 34.3348 14.9893 33.6735 14.648C33.0122 14.296 32.5002 13.8267 32.1375 13.24C31.7748 12.6427 31.5935 11.976 31.5935 11.24C31.5935 10.9093 31.6362 10.5893 31.7215 10.28C31.8068 9.97067 31.9188 9.67733 32.0575 9.4C32.1962 9.12267 32.3295 8.87733 32.4575 8.664C32.5962 8.44 32.7188 8.264 32.8255 8.136L35.7535 4.12C35.7962 4.06667 35.8602 4.00267 35.9455 3.928C36.0308 3.84267 36.1482 3.8 36.2975 3.8H37.7855C37.8815 3.8 37.9615 3.83733 38.0255 3.912C38.0895 3.976 38.1215 4.056 38.1215 4.152C38.1215 4.19467 38.1108 4.23733 38.0895 4.28C38.0788 4.312 38.0628 4.33867 38.0415 4.36L35.8015 7.464C35.8975 7.432 36.0095 7.41067 36.1375 7.4C36.2655 7.38933 36.3828 7.384 36.4895 7.384C37.0228 7.39467 37.5295 7.50133 38.0095 7.704C38.4895 7.896 38.9108 8.16267 39.2735 8.504C39.6362 8.84533 39.9188 9.24533 40.1215 9.704C40.3348 10.1627 40.4415 10.664 40.4415 11.208C40.4415 11.912 40.2655 12.568 39.9135 13.176C39.5615 13.7733 39.0548 14.2533 38.3935 14.616C37.7428 14.9787 36.9588 15.16 36.0415 15.16ZM36.0255 13.32C36.4095 13.32 36.7615 13.24 37.0815 13.08C37.4122 12.92 37.6788 12.6853 37.8815 12.376C38.0842 12.0667 38.1855 11.6827 38.1855 11.224C38.1855 10.776 38.0842 10.3973 37.8815 10.088C37.6788 9.77867 37.4122 9.544 37.0815 9.384C36.7615 9.224 36.4095 9.144 36.0255 9.144C35.6415 9.144 35.2842 9.224 34.9535 9.384C34.6335 9.544 34.3722 9.77867 34.1695 10.088C33.9668 10.3973 33.8655 10.776 33.8655 11.224C33.8655 11.6827 33.9668 12.0667 34.1695 12.376C34.3722 12.6853 34.6335 12.92 34.9535 13.08C35.2842 13.24 35.6415 13.32 36.0255 13.32Z" fill="white"/>
<path opacity="0.6" d="M4.104 43C3.99733 43 3.90667 42.9627 3.832 42.888C3.75733 42.8133 3.72 42.7227 3.72 42.616V41.8C3.72 41.704 3.74133 41.592 3.784 41.464C3.83733 41.3253 3.94933 41.1867 4.12 41.048L6.648 38.536C7.352 37.9813 7.91733 37.512 8.344 37.128C8.78133 36.7333 9.096 36.376 9.288 36.056C9.49067 35.7253 9.592 35.4 9.592 35.08C9.592 34.6 9.45867 34.2107 9.192 33.912C8.936 33.6133 8.52533 33.464 7.96 33.464C7.58667 33.464 7.272 33.544 7.016 33.704C6.76 33.8533 6.55733 34.056 6.408 34.312C6.26933 34.568 6.17333 34.8507 6.12 35.16C6.09867 35.2987 6.04 35.3947 5.944 35.448C5.848 35.5013 5.752 35.528 5.656 35.528H4.232C4.136 35.528 4.056 35.496 3.992 35.432C3.928 35.368 3.896 35.2933 3.896 35.208C3.90667 34.7493 4.00267 34.3067 4.184 33.88C4.36533 33.4427 4.62667 33.0587 4.968 32.728C5.32 32.3867 5.74667 32.1147 6.248 31.912C6.74933 31.7093 7.31467 31.608 7.944 31.608C8.82933 31.608 9.56 31.7573 10.136 32.056C10.7227 32.3547 11.16 32.76 11.448 33.272C11.7467 33.784 11.896 34.36 11.896 35C11.896 35.5013 11.8 35.9653 11.608 36.392C11.416 36.808 11.1387 37.2133 10.776 37.608C10.4133 37.992 9.976 38.3867 9.464 38.792L7.192 41.096H11.752C11.8693 41.096 11.96 41.1333 12.024 41.208C12.0987 41.272 12.136 41.3627 12.136 41.48V42.616C12.136 42.7227 12.0987 42.8133 12.024 42.888C11.96 42.9627 11.8693 43 11.752 43H4.104ZM18.1543 43.16C17.3969 43.16 16.7516 43.048 16.2183 42.824C15.6849 42.6 15.2476 42.2907 14.9062 41.896C14.5649 41.5013 14.3089 41.048 14.1383 40.536C13.9676 40.0133 13.8663 39.4587 13.8343 38.872C13.8236 38.584 13.8129 38.2693 13.8023 37.928C13.8023 37.576 13.8023 37.224 13.8023 36.872C13.8129 36.52 13.8236 36.1947 13.8343 35.896C13.8556 35.3093 13.9569 34.76 14.1383 34.248C14.3196 33.7253 14.5809 33.272 14.9223 32.888C15.2743 32.504 15.7169 32.2 16.2503 31.976C16.7836 31.752 17.4183 31.64 18.1543 31.64C18.9009 31.64 19.5409 31.752 20.0743 31.976C20.6076 32.2 21.0449 32.504 21.3863 32.888C21.7383 33.272 21.9996 33.7253 22.1703 34.248C22.3516 34.76 22.4529 35.3093 22.4743 35.896C22.4956 36.1947 22.5063 36.52 22.5063 36.872C22.5063 37.224 22.5063 37.576 22.5063 37.928C22.5063 38.2693 22.4956 38.584 22.4743 38.872C22.4529 39.4587 22.3569 40.0133 22.1863 40.536C22.0156 41.048 21.7596 41.5013 21.4183 41.896C21.0769 42.2907 20.6343 42.6 20.0903 42.824C19.5569 43.048 18.9116 43.16 18.1543 43.16ZM18.1543 41.32C18.8476 41.32 19.3543 41.096 19.6743 40.648C20.0049 40.1893 20.1756 39.5707 20.1863 38.792C20.2076 38.4827 20.2183 38.1733 20.2183 37.864C20.2183 37.544 20.2183 37.224 20.2183 36.904C20.2183 36.584 20.2076 36.28 20.1863 35.992C20.1756 35.2347 20.0049 34.6267 19.6743 34.168C19.3543 33.6987 18.8476 33.464 18.1543 33.464C17.4716 33.464 16.9649 33.6987 16.6343 34.168C16.3143 34.6267 16.1436 35.2347 16.1223 35.992C16.1223 36.28 16.1169 36.584 16.1063 36.904C16.1063 37.224 16.1063 37.544 16.1063 37.864C16.1169 38.1733 16.1223 38.4827 16.1223 38.792C16.1436 39.5707 16.3196 40.1893 16.6503 40.648C16.9809 41.096 17.4823 41.32 18.1543 41.32ZM27.8539 43C27.7365 43 27.6405 42.9627 27.5659 42.888C27.5019 42.8133 27.4699 42.7227 27.4699 42.616V34.328L25.0379 36.2C24.9419 36.264 24.8459 36.2907 24.7499 36.28C24.6539 36.2587 24.5685 36.2 24.4939 36.104L23.8219 35.24C23.7579 35.144 23.7312 35.0427 23.7419 34.936C23.7632 34.8293 23.8219 34.744 23.9179 34.68L27.5019 31.912C27.5659 31.8587 27.6299 31.8267 27.6939 31.816C27.7579 31.8053 27.8272 31.8 27.9019 31.8H29.3099C29.4165 31.8 29.5072 31.8373 29.5819 31.912C29.6565 31.9867 29.6939 32.0773 29.6939 32.184V42.616C29.6939 42.7227 29.6565 42.8133 29.5819 42.888C29.5072 42.9627 29.4165 43 29.3099 43H27.8539ZM31.9321 43C31.8255 43 31.7348 42.9627 31.6601 42.888C31.5855 42.8133 31.5481 42.7227 31.5481 42.616V41.8C31.5481 41.704 31.5695 41.592 31.6121 41.464C31.6655 41.3253 31.7775 41.1867 31.9481 41.048L34.4761 38.536C35.1801 37.9813 35.7455 37.512 36.1721 37.128C36.6095 36.7333 36.9241 36.376 37.1161 36.056C37.3188 35.7253 37.4201 35.4 37.4201 35.08C37.4201 34.6 37.2868 34.2107 37.0201 33.912C36.7641 33.6133 36.3535 33.464 35.7881 33.464C35.4148 33.464 35.1001 33.544 34.8441 33.704C34.5881 33.8533 34.3855 34.056 34.2361 34.312C34.0975 34.568 34.0015 34.8507 33.9481 35.16C33.9268 35.2987 33.8681 35.3947 33.7721 35.448C33.6761 35.5013 33.5801 35.528 33.4841 35.528H32.0601C31.9641 35.528 31.8841 35.496 31.8201 35.432C31.7561 35.368 31.7241 35.2933 31.7241 35.208C31.7348 34.7493 31.8308 34.3067 32.0121 33.88C32.1935 33.4427 32.4548 33.0587 32.7961 32.728C33.1481 32.3867 33.5748 32.1147 34.0761 31.912C34.5775 31.7093 35.1428 31.608 35.7721 31.608C36.6575 31.608 37.3881 31.7573 37.9641 32.056C38.5508 32.3547 38.9881 32.76 39.2761 33.272C39.5748 33.784 39.7241 34.36 39.7241 35C39.7241 35.5013 39.6281 35.9653 39.4361 36.392C39.2441 36.808 38.9668 37.2133 38.6041 37.608C38.2415 37.992 37.8041 38.3867 37.2921 38.792L35.0201 41.096H39.5801C39.6975 41.096 39.7881 41.1333 39.8521 41.208C39.9268 41.272 39.9641 41.3627 39.9641 41.48V42.616C39.9641 42.7227 39.9268 42.8133 39.8521 42.888C39.7881 42.9627 39.6975 43 39.5801 43H31.9321Z" fill="white"/>
<path opacity="0.6" d="M1.104 104C0.997333 104 0.906667 103.963 0.832 103.888C0.757333 103.813 0.72 103.723 0.72 103.616V102.8C0.72 102.704 0.741333 102.592 0.784 102.464C0.837333 102.325 0.949333 102.187 1.12 102.048L3.648 99.536C4.352 98.9813 4.91733 98.512 5.344 98.128C5.78133 97.7333 6.096 97.376 6.288 97.056C6.49067 96.7253 6.592 96.4 6.592 96.08C6.592 95.6 6.45867 95.2107 6.192 94.912C5.936 94.6133 5.52533 94.464 4.96 94.464C4.58667 94.464 4.272 94.544 4.016 94.704C3.76 94.8533 3.55733 95.056 3.408 95.312C3.26933 95.568 3.17333 95.8507 3.12 96.16C3.09867 96.2987 3.04 96.3947 2.944 96.448C2.848 96.5013 2.752 96.528 2.656 96.528H1.232C1.136 96.528 1.056 96.496 0.992 96.432C0.928 96.368 0.896 96.2933 0.896 96.208C0.906667 95.7493 1.00267 95.3067 1.184 94.88C1.36533 94.4427 1.62667 94.0587 1.968 93.728C2.32 93.3867 2.74667 93.1147 3.248 92.912C3.74933 92.7093 4.31467 92.608 4.944 92.608C5.82933 92.608 6.56 92.7573 7.136 93.056C7.72267 93.3547 8.16 93.76 8.448 94.272C8.74667 94.784 8.896 95.36 8.896 96C8.896 96.5013 8.8 96.9653 8.608 97.392C8.416 97.808 8.13867 98.2133 7.776 98.608C7.41333 98.992 6.976 99.3867 6.464 99.792L4.192 102.096H8.752C8.86933 102.096 8.96 102.133 9.024 102.208C9.09867 102.272 9.136 102.363 9.136 102.48V103.616C9.136 103.723 9.09867 103.813 9.024 103.888C8.96 103.963 8.86933 104 8.752 104H1.104ZM15.1543 104.16C14.3969 104.16 13.7516 104.048 13.2183 103.824C12.6849 103.6 12.2476 103.291 11.9062 102.896C11.5649 102.501 11.3089 102.048 11.1383 101.536C10.9676 101.013 10.8663 100.459 10.8343 99.872C10.8236 99.584 10.8129 99.2693 10.8023 98.928C10.8023 98.576 10.8023 98.224 10.8023 97.872C10.8129 97.52 10.8236 97.1947 10.8343 96.896C10.8556 96.3093 10.9569 95.76 11.1383 95.248C11.3196 94.7253 11.5809 94.272 11.9223 93.888C12.2743 93.504 12.7169 93.2 13.2503 92.976C13.7836 92.752 14.4183 92.64 15.1543 92.64C15.9009 92.64 16.5409 92.752 17.0743 92.976C17.6076 93.2 18.0449 93.504 18.3863 93.888C18.7383 94.272 18.9996 94.7253 19.1703 95.248C19.3516 95.76 19.4529 96.3093 19.4743 96.896C19.4956 97.1947 19.5063 97.52 19.5063 97.872C19.5063 98.224 19.5063 98.576 19.5063 98.928C19.5063 99.2693 19.4956 99.584 19.4743 99.872C19.4529 100.459 19.3569 101.013 19.1863 101.536C19.0156 102.048 18.7596 102.501 18.4183 102.896C18.0769 103.291 17.6343 103.6 17.0903 103.824C16.5569 104.048 15.9116 104.16 15.1543 104.16ZM15.1543 102.32C15.8476 102.32 16.3543 102.096 16.6743 101.648C17.0049 101.189 17.1756 100.571 17.1863 99.792C17.2076 99.4827 17.2183 99.1733 17.2183 98.864C17.2183 98.544 17.2183 98.224 17.2183 97.904C17.2183 97.584 17.2076 97.28 17.1863 96.992C17.1756 96.2347 17.0049 95.6267 16.6743 95.168C16.3543 94.6987 15.8476 94.464 15.1543 94.464C14.4716 94.464 13.9649 94.6987 13.6343 95.168C13.3143 95.6267 13.1436 96.2347 13.1223 96.992C13.1223 97.28 13.1169 97.584 13.1063 97.904C13.1063 98.224 13.1063 98.544 13.1063 98.864C13.1169 99.1733 13.1223 99.4827 13.1223 99.792C13.1436 100.571 13.3196 101.189 13.6503 101.648C13.9809 102.096 14.4823 102.32 15.1543 102.32ZM21.5259 104C21.4192 104 21.3285 103.963 21.2539 103.888C21.1792 103.813 21.1419 103.723 21.1419 103.616V102.8C21.1419 102.704 21.1632 102.592 21.2059 102.464C21.2592 102.325 21.3712 102.187 21.5419 102.048L24.0699 99.536C24.7739 98.9813 25.3392 98.512 25.7659 98.128C26.2032 97.7333 26.5179 97.376 26.7099 97.056C26.9125 96.7253 27.0139 96.4 27.0139 96.08C27.0139 95.6 26.8805 95.2107 26.6139 94.912C26.3579 94.6133 25.9472 94.464 25.3819 94.464C25.0085 94.464 24.6939 94.544 24.4379 94.704C24.1819 94.8533 23.9792 95.056 23.8299 95.312C23.6912 95.568 23.5952 95.8507 23.5419 96.16C23.5205 96.2987 23.4619 96.3947 23.3659 96.448C23.2699 96.5013 23.1739 96.528 23.0779 96.528H21.6539C21.5579 96.528 21.4779 96.496 21.4139 96.432C21.3499 96.368 21.3179 96.2933 21.3179 96.208C21.3285 95.7493 21.4245 95.3067 21.6059 94.88C21.7872 94.4427 22.0485 94.0587 22.3899 93.728C22.7419 93.3867 23.1685 93.1147 23.6699 92.912C24.1712 92.7093 24.7365 92.608 25.3659 92.608C26.2512 92.608 26.9819 92.7573 27.5579 93.056C28.1445 93.3547 28.5819 93.76 28.8699 94.272C29.1685 94.784 29.3179 95.36 29.3179 96C29.3179 96.5013 29.2219 96.9653 29.0299 97.392C28.8379 97.808 28.5605 98.2133 28.1979 98.608C27.8352 98.992 27.3979 99.3867 26.8859 99.792L24.6139 102.096H29.1739C29.2912 102.096 29.3819 102.133 29.4459 102.208C29.5205 102.272 29.5579 102.363 29.5579 102.48V103.616C29.5579 103.723 29.5205 103.813 29.4459 103.888C29.3819 103.963 29.2912 104 29.1739 104H21.5259ZM36.5388 104C36.4321 104 36.3414 103.963 36.2668 103.888C36.1921 103.813 36.1548 103.723 36.1548 103.616V101.568H31.0828C30.9654 101.568 30.8694 101.531 30.7948 101.456C30.7308 101.381 30.6988 101.291 30.6988 101.184V100.096C30.6988 100.032 30.7094 99.9573 30.7308 99.872C30.7628 99.776 30.8108 99.6907 30.8748 99.616L35.5948 93.072C35.7334 92.8907 35.9308 92.8 36.1868 92.8H37.9308C38.0374 92.8 38.1281 92.8373 38.2028 92.912C38.2774 92.9867 38.3148 93.0773 38.3148 93.184V99.68H39.7388C39.8668 99.68 39.9628 99.7173 40.0268 99.792C40.1014 99.856 40.1388 99.9467 40.1388 100.064V101.184C40.1388 101.291 40.1014 101.381 40.0268 101.456C39.9521 101.531 39.8614 101.568 39.7548 101.568H38.3148V103.616C38.3148 103.723 38.2774 103.813 38.2028 103.888C38.1281 103.963 38.0374 104 37.9308 104H36.5388ZM32.9228 99.744H36.2028V95.12L32.9228 99.744Z" fill="white"/>
</svg>
