<svg width="114" height="114" viewBox="0 0 114 114" fill="none" xmlns="http://www.w3.org/2000/svg">
<path d="M57 5V19.8571ZM57 94.5561V109ZM19.4444 57H5ZM29.7619 29.7619L19.4444 19.4444ZM84.2381 29.7619L94.5556 19.4444ZM29.7619 84.2381L19.4444 94.5561ZM84.2381 84.2381L94.5556 94.5561ZM109 57H94.5556ZM80.1111 57C80.1111 69.7637 69.7637 80.1111 57 80.1111C44.2361 80.1111 33.8889 69.7637 33.8889 57C33.8889 44.2361 44.2361 33.8889 57 33.8889C69.7637 33.8889 80.1111 44.2361 80.1111 57Z" fill="white"/>
<path d="M57 5V19.8571ZM57 94.5561V109ZM19.4444 57H5ZM29.7619 29.7619L19.4444 19.4444ZM84.2381 29.7619L94.5556 19.4444ZM29.7619 84.2381L19.4444 94.5561ZM84.2381 84.2381L94.5556 94.5561ZM109 57H94.5556ZM80.1111 57C80.1111 69.7637 69.7637 80.1111 57 80.1111C44.2361 80.1111 33.8889 69.7637 33.8889 57C33.8889 44.2361 44.2361 33.8889 57 33.8889C69.7637 33.8889 80.1111 44.2361 80.1111 57Z" fill="white"/>
<path d="M57 5V19.8571M57 94.5561V109M19.4444 57H5M29.7619 29.7619L19.4444 19.4444M84.2381 29.7619L94.5556 19.4444M29.7619 84.2381L19.4444 94.5561M84.2381 84.2381L94.5556 94.5561M109 57H94.5556M80.1111 57C80.1111 69.7637 69.7637 80.1111 57 80.1111C44.2361 80.1111 33.8889 69.7637 33.8889 57C33.8889 44.2361 44.2361 33.8889 57 33.8889C69.7637 33.8889 80.1111 44.2361 80.1111 57Z" stroke="white" stroke-width="10" stroke-linecap="round" stroke-linejoin="round"/>
</svg>
